<svg width="18" height="18" viewBox="0 0 18 18" fill="none" xmlns="http://www.w3.org/2000/svg">
<path d="M2.28523 9.70306C1.71223 8.63257 1.54305 7.39179 1.80856 6.20697C2.07407 5.02215 2.75657 3.97222 3.73161 3.24863C4.70665 2.52504 5.90929 2.17599 7.12022 2.26513C8.33114 2.35428 9.4697 2.87567 10.3283 3.73424C11.1868 4.59282 11.7082 5.73137 11.7974 6.9423C11.8865 8.15323 11.5375 9.35586 10.8139 10.3309C10.0903 11.3059 9.04037 11.9884 7.85555 12.254C6.67073 12.5195 5.42995 12.3503 4.35945 11.7773L2.40758 12.351C2.31066 12.3795 2.20786 12.3813 2.10998 12.3564C2.01211 12.3314 1.92276 12.2805 1.85133 12.2091C1.77991 12.1376 1.72903 12.0483 1.70405 11.9504C1.67907 11.8525 1.68091 11.7498 1.70937 11.6528L2.28523 9.70306Z" stroke="#0F6E06" stroke-linecap="round" stroke-linejoin="round"/>
<path d="M11.5272 5.63281C12.3777 5.67905 13.2027 5.9391 13.9259 6.38889C14.6492 6.83868 15.2473 7.46367 15.6648 8.206C16.0823 8.94833 16.3058 9.78401 16.3146 10.6357C16.3234 11.4873 16.1172 12.3274 15.715 13.0782L16.2888 15.0301C16.3172 15.127 16.3191 15.2298 16.2941 15.3277C16.2691 15.4255 16.2182 15.5149 16.1468 15.5863C16.0754 15.6577 15.986 15.7086 15.8882 15.7336C15.7903 15.7586 15.6875 15.7567 15.5906 15.7283L13.6408 15.1524C12.9967 15.4969 12.2858 15.698 11.5567 15.7419C10.8277 15.7859 10.0977 15.6717 9.41689 15.4072C8.73608 15.1427 8.12053 14.734 7.61242 14.2093C7.10432 13.6847 6.71568 13.0563 6.47314 12.3673" stroke="#0F6E06" stroke-linecap="round" stroke-linejoin="round"/>
</svg>
