<svg width="28" height="28" viewBox="0 0 28 28" fill="none" xmlns="http://www.w3.org/2000/svg">
<path d="M0 14C0 6.26801 6.26801 0 14 0V0C21.732 0 28 6.26801 28 14V14C28 21.732 21.732 28 14 28V28C6.26801 28 0 21.732 0 14V14Z" fill="white"/>
<path d="M14 0.25C21.5939 0.25 27.75 6.40608 27.75 14C27.75 21.5939 21.5939 27.75 14 27.75C6.40608 27.75 0.25 21.5939 0.25 14C0.25 6.40608 6.40608 0.25 14 0.25Z" stroke="#4C4C3B" stroke-opacity="0.3" stroke-width="0.5"/>
<path d="M5 11.5H10.4164C15.5649 11.5 16.7758 14.5278 16.7758 16.5C16.7758 16.5 14.6145 12.9137 8.83542 12.9137C5 12.9131 5 11.5 5 11.5Z" fill="#061F2F"/>
<path d="M16.7759 13.0876C16.7759 12.2369 17.6554 11.5 18.7401 11.5H22.9993C23.0265 11.5 22.3003 12.5789 19.4507 12.5789C17.2927 12.5789 16.7759 16.4554 16.7759 16.4341V13.0876Z" fill="#061F2F"/>
</svg>
