<svg width="533" height="253" viewBox="0 0 533 253" fill="none" xmlns="http://www.w3.org/2000/svg">
<g filter="url(#filter0_d_1202_12920)">
<rect x="50.5" y="45.5" width="432" height="136" rx="12" fill="white" shape-rendering="crispEdges"/>
<rect x="50.25" y="45.25" width="432.5" height="136.5" rx="12.25" stroke="#4C4C3B" stroke-opacity="0.3" stroke-width="0.5" shape-rendering="crispEdges"/>
<path d="M72.5 62H460.5C463.538 62 466 64.4624 466 67.5V99.5C466 102.538 463.538 105 460.5 105H72.5C69.4624 105 67 102.538 67 99.5V67.5C67 64.4624 69.4624 62 72.5 62Z" fill="white"/>
<path d="M72.5 62H460.5C463.538 62 466 64.4624 466 67.5V99.5C466 102.538 463.538 105 460.5 105H72.5C69.4624 105 67 102.538 67 99.5V67.5C67 64.4624 69.4624 62 72.5 62Z" stroke="#DAD9D6"/>
<path d="M87.25 88.5C90.7018 88.5 93.5 85.7018 93.5 82.25C93.5 78.7982 90.7018 76 87.25 76C83.7982 76 81 78.7982 81 82.25C81 85.7018 83.7982 88.5 87.25 88.5Z" stroke="#21201D" stroke-width="1.34" stroke-linecap="round" stroke-linejoin="round"/>
<path d="M91.6719 86.6694L96.0023 90.9999" stroke="#21201D" stroke-width="1.34" stroke-linecap="round" stroke-linejoin="round"/>
<path d="M113.301 80.8636C113.241 80.3598 113 79.9688 112.575 79.6903C112.151 79.4119 111.631 79.2727 111.014 79.2727C110.563 79.2727 110.169 79.3456 109.831 79.4915C109.496 79.6373 109.234 79.8378 109.045 80.093C108.86 80.3482 108.767 80.6383 108.767 80.9631C108.767 81.2348 108.832 81.4685 108.961 81.6641C109.094 81.8563 109.263 82.017 109.468 82.1463C109.674 82.2723 109.889 82.3767 110.114 82.4595C110.34 82.5391 110.547 82.6037 110.736 82.6534L111.77 82.9318C112.035 83.0014 112.33 83.0975 112.655 83.2202C112.983 83.3428 113.296 83.5102 113.594 83.7223C113.896 83.9311 114.145 84.1996 114.34 84.5277C114.536 84.8558 114.634 85.2585 114.634 85.7358C114.634 86.286 114.489 86.7831 114.201 87.2273C113.916 87.6714 113.498 88.0244 112.948 88.2862C112.401 88.5481 111.737 88.679 110.955 88.679C110.225 88.679 109.594 88.5613 109.06 88.326C108.53 88.0907 108.112 87.7625 107.808 87.3416C107.506 86.9207 107.335 86.4318 107.295 85.875H108.568C108.601 86.2595 108.731 86.5777 108.956 86.8295C109.185 87.0781 109.473 87.2637 109.821 87.3864C110.172 87.5057 110.55 87.5653 110.955 87.5653C111.425 87.5653 111.848 87.4891 112.222 87.3366C112.597 87.1809 112.893 86.9654 113.112 86.6903C113.331 86.4119 113.44 86.0871 113.44 85.7159C113.44 85.3778 113.346 85.1027 113.157 84.8906C112.968 84.6785 112.719 84.5062 112.411 84.3736C112.103 84.241 111.77 84.125 111.412 84.0256L110.159 83.6676C109.364 83.4389 108.734 83.1125 108.27 82.6882C107.806 82.264 107.574 81.7088 107.574 81.0227C107.574 80.4527 107.728 79.9555 108.036 79.5312C108.348 79.1037 108.765 78.7723 109.289 78.5369C109.816 78.2983 110.404 78.179 111.054 78.179C111.71 78.179 112.294 78.2966 112.804 78.532C113.314 78.764 113.719 79.0821 114.017 79.4865C114.319 79.8909 114.478 80.3499 114.494 80.8636H113.301ZM116.502 91.3636V80.8636H117.635V82.0767H117.774C117.86 81.9441 117.98 81.7751 118.132 81.5696C118.288 81.3608 118.51 81.1752 118.798 81.0128C119.09 80.8471 119.485 80.7642 119.982 80.7642C120.625 80.7642 121.191 80.925 121.682 81.2464C122.173 81.5679 122.555 82.0237 122.83 82.6136C123.106 83.2036 123.243 83.8996 123.243 84.7017C123.243 85.5104 123.106 86.2114 122.83 86.8047C122.555 87.3946 122.174 87.852 121.687 88.1768C121.2 88.4983 120.638 88.6591 120.002 88.6591C119.511 88.6591 119.118 88.5779 118.823 88.4155C118.528 88.2498 118.301 88.0625 118.142 87.8537C117.983 87.6416 117.86 87.4659 117.774 87.3267H117.675V91.3636H116.502ZM117.655 84.6818C117.655 85.2585 117.74 85.7673 117.909 86.2081C118.078 86.6456 118.325 86.9886 118.649 87.2372C118.974 87.4825 119.372 87.6051 119.843 87.6051C120.333 87.6051 120.742 87.4759 121.07 87.2173C121.402 86.9555 121.651 86.6042 121.816 86.1634C121.985 85.7192 122.07 85.2254 122.07 84.6818C122.07 84.1449 121.987 83.661 121.821 83.2301C121.659 82.7959 121.412 82.4529 121.08 82.201C120.752 81.9458 120.34 81.8182 119.843 81.8182C119.365 81.8182 118.964 81.9392 118.639 82.1811C118.315 82.4197 118.069 82.7545 117.904 83.1854C117.738 83.6129 117.655 84.1117 117.655 84.6818ZM125.033 88.5V80.8636H126.166V82.017H126.246C126.385 81.6392 126.637 81.3326 127.002 81.0973C127.366 80.862 127.777 80.7443 128.235 80.7443C128.321 80.7443 128.428 80.746 128.558 80.7493C128.687 80.7526 128.785 80.7576 128.851 80.7642V81.9574C128.811 81.9474 128.72 81.9325 128.578 81.9126C128.438 81.8894 128.291 81.8778 128.135 81.8778C127.764 81.8778 127.432 81.9557 127.141 82.1115C126.852 82.264 126.624 82.4761 126.455 82.7479C126.289 83.0163 126.206 83.3229 126.206 83.6676V88.5H125.033ZM130.242 88.5V80.8636H131.415V88.5H130.242ZM130.838 79.5909C130.61 79.5909 130.413 79.513 130.247 79.3572C130.084 79.2015 130.003 79.0142 130.003 78.7955C130.003 78.5767 130.084 78.3894 130.247 78.2337C130.413 78.0779 130.61 78 130.838 78C131.067 78 131.263 78.0779 131.425 78.2337C131.591 78.3894 131.674 78.5767 131.674 78.7955C131.674 79.0142 131.591 79.2015 131.425 79.3572C131.263 79.513 131.067 79.5909 130.838 79.5909ZM134.737 83.9062V88.5H133.564V80.8636H134.698V82.0568H134.797C134.976 81.669 135.248 81.3575 135.612 81.1222C135.977 80.8835 136.448 80.7642 137.024 80.7642C137.541 80.7642 137.994 80.8703 138.382 81.0824C138.769 81.2912 139.071 81.6094 139.286 82.0369C139.502 82.4612 139.61 82.9981 139.61 83.6477V88.5H138.436V83.7273C138.436 83.1274 138.28 82.66 137.969 82.3253C137.657 81.9872 137.23 81.8182 136.686 81.8182C136.312 81.8182 135.977 81.8994 135.682 82.0618C135.39 82.2242 135.16 82.4612 134.991 82.7727C134.822 83.0843 134.737 83.4621 134.737 83.9062ZM144.836 91.5227C144.269 91.5227 143.782 91.4498 143.374 91.304C142.967 91.1615 142.627 90.9725 142.355 90.7372C142.087 90.5052 141.873 90.2566 141.714 89.9915L142.648 89.3352C142.754 89.4744 142.889 89.6335 143.051 89.8125C143.214 89.9948 143.436 90.1522 143.717 90.2848C144.002 90.4207 144.375 90.4886 144.836 90.4886C145.452 90.4886 145.961 90.3395 146.362 90.0412C146.763 89.7429 146.964 89.2756 146.964 88.6392V87.0881H146.864C146.778 87.2273 146.656 87.3996 146.496 87.6051C146.341 87.8073 146.115 87.9879 145.82 88.147C145.529 88.3028 145.134 88.3807 144.637 88.3807C144.021 88.3807 143.467 88.2348 142.977 87.9432C142.489 87.6515 142.103 87.2273 141.818 86.6705C141.536 86.1136 141.396 85.4375 141.396 84.642C141.396 83.8598 141.533 83.1787 141.808 82.5987C142.083 82.0154 142.466 81.5646 142.957 81.2464C143.447 80.925 144.014 80.7642 144.657 80.7642C145.154 80.7642 145.549 80.8471 145.84 81.0128C146.135 81.1752 146.361 81.3608 146.516 81.5696C146.675 81.7751 146.798 81.9441 146.884 82.0767H147.004V80.8636H148.137V88.7188C148.137 89.375 147.988 89.9086 147.69 90.3196C147.395 90.7339 146.997 91.0372 146.496 91.2294C145.999 91.425 145.446 91.5227 144.836 91.5227ZM144.796 87.3267C145.267 87.3267 145.665 87.219 145.989 87.0036C146.314 86.7881 146.561 86.4782 146.73 86.0739C146.899 85.6695 146.984 85.1856 146.984 84.6222C146.984 84.072 146.901 83.5864 146.735 83.1655C146.569 82.7446 146.324 82.4148 145.999 82.1761C145.674 81.9375 145.273 81.8182 144.796 81.8182C144.299 81.8182 143.885 81.9441 143.553 82.196C143.225 82.4479 142.978 82.786 142.812 83.2102C142.65 83.6345 142.569 84.1051 142.569 84.6222C142.569 85.1525 142.652 85.6214 142.817 86.0291C142.987 86.4335 143.235 86.7517 143.563 86.9837C143.895 87.2124 144.306 87.3267 144.796 87.3267ZM154.222 88.5V80.8636H155.356V82.0568H155.455C155.614 81.6491 155.871 81.3326 156.226 81.1072C156.58 80.8786 157.006 80.7642 157.504 80.7642C158.007 80.7642 158.427 80.8786 158.761 81.1072C159.099 81.3326 159.363 81.6491 159.552 82.0568H159.631C159.827 81.6624 160.12 81.3492 160.511 81.1172C160.902 80.8819 161.371 80.7642 161.918 80.7642C162.601 80.7642 163.16 80.978 163.594 81.4055C164.028 81.8298 164.245 82.491 164.245 83.3892V88.5H163.072V83.3892C163.072 82.8258 162.918 82.4231 162.609 82.1811C162.301 81.9392 161.938 81.8182 161.521 81.8182C160.984 81.8182 160.568 81.9806 160.273 82.3054C159.978 82.6269 159.83 83.0346 159.83 83.5284V88.5H158.637V83.2699C158.637 82.8357 158.496 82.486 158.214 82.2209C157.933 81.9524 157.57 81.8182 157.126 81.8182C156.821 81.8182 156.536 81.8994 156.271 82.0618C156.009 82.2242 155.797 82.4496 155.634 82.7379C155.475 83.023 155.396 83.3527 155.396 83.7273V88.5H154.222ZM169.592 88.6591C168.856 88.6591 168.221 88.4967 167.688 88.1719C167.158 87.8438 166.748 87.3864 166.46 86.7997C166.175 86.2098 166.032 85.5237 166.032 84.7415C166.032 83.9593 166.175 83.2699 166.46 82.6733C166.748 82.0734 167.149 81.6061 167.663 81.2713C168.18 80.9332 168.783 80.7642 169.473 80.7642C169.87 80.7642 170.263 80.8305 170.651 80.9631C171.039 81.0956 171.392 81.3111 171.71 81.6094C172.028 81.9044 172.282 82.2955 172.471 82.7827C172.659 83.2699 172.754 83.8698 172.754 84.5824V85.0795H166.868V84.0653H171.561C171.561 83.6345 171.475 83.25 171.302 82.9119C171.133 82.5739 170.891 82.3071 170.576 82.1115C170.265 81.916 169.897 81.8182 169.473 81.8182C169.005 81.8182 168.601 81.9342 168.26 82.1662C167.922 82.3949 167.661 82.6932 167.479 83.0611C167.297 83.429 167.206 83.8234 167.206 84.2443V84.9205C167.206 85.4972 167.305 85.986 167.504 86.3871C167.706 86.7848 167.986 87.0881 168.344 87.2969C168.702 87.5024 169.118 87.6051 169.592 87.6051C169.9 87.6051 170.179 87.562 170.427 87.4759C170.679 87.3864 170.896 87.2538 171.078 87.0781C171.261 86.8991 171.402 86.6771 171.501 86.4119L172.635 86.7301C172.515 87.1146 172.315 87.4527 172.033 87.7443C171.751 88.0327 171.403 88.258 170.989 88.4205C170.575 88.5795 170.109 88.6591 169.592 88.6591ZM177.422 88.6591C176.786 88.6591 176.224 88.4983 175.737 88.1768C175.25 87.852 174.868 87.3946 174.593 86.8047C174.318 86.2114 174.181 85.5104 174.181 84.7017C174.181 83.8996 174.318 83.2036 174.593 82.6136C174.868 82.0237 175.251 81.5679 175.742 81.2464C176.232 80.925 176.799 80.7642 177.442 80.7642C177.939 80.7642 178.332 80.8471 178.62 81.0128C178.912 81.1752 179.134 81.3608 179.287 81.5696C179.442 81.7751 179.563 81.9441 179.65 82.0767H179.749V78.3182H180.922V88.5H179.789V87.3267H179.65C179.563 87.4659 179.441 87.6416 179.282 87.8537C179.123 88.0625 178.895 88.2498 178.6 88.4155C178.306 88.5779 177.913 88.6591 177.422 88.6591ZM177.581 87.6051C178.052 87.6051 178.45 87.4825 178.775 87.2372C179.099 86.9886 179.346 86.6456 179.515 86.2081C179.684 85.7673 179.769 85.2585 179.769 84.6818C179.769 84.1117 179.686 83.6129 179.52 83.1854C179.355 82.7545 179.109 82.4197 178.784 82.1811C178.46 81.9392 178.059 81.8182 177.581 81.8182C177.084 81.8182 176.67 81.9458 176.338 82.201C176.01 82.4529 175.763 82.7959 175.598 83.2301C175.435 83.661 175.354 84.1449 175.354 84.6818C175.354 85.2254 175.437 85.7192 175.603 86.1634C175.772 86.6042 176.02 86.9555 176.348 87.2173C176.68 87.4759 177.091 87.6051 177.581 87.6051ZM183.234 88.5V80.8636H184.407V88.5H183.234ZM183.831 79.5909C183.602 79.5909 183.405 79.513 183.239 79.3572C183.077 79.2015 182.995 79.0142 182.995 78.7955C182.995 78.5767 183.077 78.3894 183.239 78.2337C183.405 78.0779 183.602 78 183.831 78C184.059 78 184.255 78.0779 184.417 78.2337C184.583 78.3894 184.666 78.5767 184.666 78.7955C184.666 79.0142 184.583 79.2015 184.417 79.3572C184.255 79.513 184.059 79.5909 183.831 79.5909ZM189.659 88.6591C188.943 88.6591 188.326 88.4901 187.809 88.152C187.292 87.8139 186.894 87.3482 186.616 86.755C186.338 86.1617 186.198 85.4839 186.198 84.7216C186.198 83.946 186.341 83.2616 186.626 82.6683C186.914 82.0717 187.315 81.6061 187.829 81.2713C188.346 80.9332 188.949 80.7642 189.639 80.7642C190.176 80.7642 190.66 80.8636 191.09 81.0625C191.521 81.2614 191.874 81.5398 192.149 81.8977C192.424 82.2557 192.595 82.6733 192.661 83.1506H191.488C191.399 82.8026 191.2 82.4943 190.892 82.2259C190.587 81.9541 190.176 81.8182 189.659 81.8182C189.201 81.8182 188.8 81.9375 188.455 82.1761C188.114 82.4115 187.847 82.7446 187.655 83.1754C187.466 83.603 187.372 84.1051 187.372 84.6818C187.372 85.2718 187.464 85.7855 187.65 86.223C187.839 86.6605 188.104 87.0002 188.445 87.2422C188.79 87.4841 189.195 87.6051 189.659 87.6051C189.963 87.6051 190.24 87.5521 190.489 87.446C190.737 87.34 190.948 87.1875 191.12 86.9886C191.293 86.7898 191.415 86.5511 191.488 86.2727H192.661C192.595 86.7235 192.431 87.1295 192.169 87.4908C191.911 87.8487 191.568 88.1338 191.14 88.3459C190.716 88.5547 190.222 88.6591 189.659 88.6591ZM196.624 88.679C196.14 88.679 195.701 88.5878 195.306 88.4055C194.912 88.2199 194.599 87.9531 194.367 87.6051C194.135 87.2538 194.019 86.8295 194.019 86.3324C194.019 85.8949 194.105 85.5402 194.277 85.2685C194.45 84.9934 194.68 84.7779 194.968 84.6222C195.257 84.4664 195.575 84.3504 195.923 84.2741C196.274 84.1946 196.627 84.1316 196.982 84.0852C197.446 84.0256 197.822 83.9808 198.11 83.951C198.402 83.9179 198.614 83.8632 198.747 83.7869C198.883 83.7107 198.95 83.5781 198.95 83.3892V83.3494C198.95 82.8589 198.816 82.4777 198.548 82.206C198.283 81.9342 197.88 81.7983 197.34 81.7983C196.78 81.7983 196.34 81.9209 196.022 82.1662C195.704 82.4115 195.48 82.6733 195.351 82.9517L194.237 82.554C194.436 82.09 194.701 81.7287 195.033 81.4702C195.368 81.2083 195.732 81.026 196.127 80.9233C196.524 80.8172 196.915 80.7642 197.3 80.7642C197.545 80.7642 197.827 80.794 198.145 80.8537C198.467 80.91 198.776 81.0277 199.075 81.2067C199.376 81.3857 199.627 81.6558 199.825 82.017C200.024 82.3783 200.124 82.8622 200.124 83.4688V88.5H198.95V87.4659H198.891C198.811 87.6316 198.679 87.8089 198.493 87.9979C198.307 88.1868 198.061 88.3475 197.752 88.4801C197.444 88.6127 197.068 88.679 196.624 88.679ZM196.803 87.625C197.267 87.625 197.658 87.5339 197.976 87.3516C198.298 87.1693 198.539 86.9339 198.702 86.6456C198.868 86.3572 198.95 86.054 198.95 85.7358V84.6619C198.901 84.7216 198.791 84.7763 198.622 84.826C198.457 84.8724 198.264 84.9138 198.046 84.9503C197.83 84.9834 197.62 85.0133 197.414 85.0398C197.212 85.063 197.048 85.0829 196.922 85.0994C196.617 85.1392 196.332 85.2038 196.067 85.2933C195.805 85.3795 195.593 85.5104 195.431 85.6861C195.271 85.8584 195.192 86.0937 195.192 86.392C195.192 86.7997 195.343 87.108 195.644 87.3168C195.949 87.5223 196.335 87.625 196.803 87.625ZM203.439 78.3182V88.5H202.265V78.3182H203.439Z" fill="#21201D"/>
<path d="M66.5 127.5C66.5 124.186 69.1863 121.5 72.5 121.5H460.5C463.814 121.5 466.5 124.186 466.5 127.5V159.5C466.5 162.814 463.814 165.5 460.5 165.5H72.5C69.1863 165.5 66.5 162.814 66.5 159.5V127.5Z" fill="#F1F0EF"/>
<path d="M248.837 138.318V148.5H247.425L242.249 141.033H242.155V148.5H240.619V138.318H242.04L247.221 145.795H247.315V138.318H248.837ZM254.249 148.654C253.497 148.654 252.849 148.493 252.306 148.172C251.765 147.847 251.348 147.391 251.053 146.805C250.761 146.215 250.615 145.524 250.615 144.732C250.615 143.949 250.761 143.26 251.053 142.663C251.348 142.067 251.759 141.601 252.286 141.266C252.816 140.932 253.436 140.764 254.145 140.764C254.576 140.764 254.994 140.835 255.398 140.978C255.802 141.121 256.165 141.344 256.487 141.649C256.808 141.954 257.062 142.35 257.247 142.837C257.433 143.321 257.526 143.91 257.526 144.602V145.129H251.455V144.016H256.069C256.069 143.625 255.99 143.278 255.83 142.977C255.671 142.672 255.448 142.431 255.159 142.256C254.874 142.08 254.539 141.992 254.155 141.992C253.737 141.992 253.373 142.095 253.061 142.3C252.753 142.503 252.514 142.768 252.345 143.096C252.18 143.421 252.097 143.774 252.097 144.155V145.025C252.097 145.535 252.186 145.969 252.365 146.327C252.548 146.685 252.801 146.959 253.126 147.148C253.451 147.333 253.83 147.426 254.264 147.426C254.546 147.426 254.803 147.386 255.035 147.307C255.267 147.224 255.468 147.101 255.637 146.939C255.806 146.777 255.935 146.576 256.024 146.337L257.431 146.591C257.319 147.005 257.116 147.368 256.825 147.68C256.536 147.988 256.173 148.228 255.736 148.401C255.302 148.57 254.806 148.654 254.249 148.654ZM260.171 140.864L261.856 143.837L263.556 140.864H265.182L262.801 144.682L265.202 148.5H263.576L261.856 145.646L260.141 148.5H258.51L260.887 144.682L258.54 140.864H260.171ZM270.273 140.864V142.057H266.102V140.864H270.273ZM267.22 139.034H268.707V146.258C268.707 146.546 268.75 146.763 268.836 146.909C268.922 147.052 269.033 147.149 269.169 147.202C269.308 147.252 269.459 147.277 269.622 147.277C269.741 147.277 269.845 147.269 269.935 147.252C270.024 147.236 270.094 147.222 270.144 147.212L270.412 148.44C270.326 148.473 270.203 148.507 270.044 148.54C269.885 148.576 269.686 148.596 269.448 148.599C269.057 148.606 268.692 148.536 268.354 148.391C268.016 148.245 267.742 148.019 267.534 147.714C267.325 147.41 267.22 147.027 267.22 146.566V139.034Z" fill="#BCBBB7"/>
<path d="M279.312 143.5H291.688" stroke="#BCBBB7" stroke-width="1.34" stroke-linecap="round" stroke-linejoin="round"/>
<path d="M286.625 138.438L291.688 143.5L286.625 148.562" stroke="#BCBBB7" stroke-width="1.34" stroke-linecap="round" stroke-linejoin="round"/>
</g>
<g filter="url(#filter1_ddd_1202_12920)">
<path d="M66.5 116.5C66.5 112.082 70.0817 108.5 74.5 108.5H458.5C462.918 108.5 466.5 112.082 466.5 116.5V220.5C466.5 224.918 462.918 228.5 458.5 228.5H74.5C70.0817 228.5 66.5 224.918 66.5 220.5V116.5Z" fill="white" shape-rendering="crispEdges"/>
<path d="M74.5 109H458.5C462.642 109 466 112.358 466 116.5V220.5C466 224.642 462.642 228 458.5 228H74.5C70.3579 228 67 224.642 67 220.5V116.5C67 112.358 70.3579 109 74.5 109Z" stroke="#DAD9D6" shape-rendering="crispEdges"/>
<path d="M72.5 120.5C72.5 117.186 75.1863 114.5 78.5 114.5H454.5C457.814 114.5 460.5 117.186 460.5 120.5V162.5C460.5 165.814 457.814 168.5 454.5 168.5H78.5C75.1863 168.5 72.5 165.814 72.5 162.5V120.5Z" fill="#241600" fill-opacity="0.06"/>
<path d="M89.5 142.062C90.7426 142.062 91.75 141.055 91.75 139.812C91.75 138.57 90.7426 137.562 89.5 137.562C88.2574 137.562 87.25 138.57 87.25 139.812C87.25 141.055 88.2574 142.062 89.5 142.062Z" stroke="#21201D" stroke-width="1.34" stroke-linecap="round" stroke-linejoin="round"/>
<path d="M95.125 139.812C95.125 144.875 89.5 148.812 89.5 148.812C89.5 148.812 83.875 144.875 83.875 139.812C83.875 138.321 84.4676 136.89 85.5225 135.835C86.5774 134.78 88.0082 134.188 89.5 134.188C90.9918 134.188 92.4226 134.78 93.4775 135.835C94.5324 136.89 95.125 138.321 95.125 139.812Z" stroke="#21201D" stroke-width="1.34" stroke-linecap="round" stroke-linejoin="round"/>
<path d="M113.301 128.864C113.241 128.36 113 127.969 112.575 127.69C112.151 127.412 111.631 127.273 111.014 127.273C110.563 127.273 110.169 127.346 109.831 127.491C109.496 127.637 109.234 127.838 109.045 128.093C108.86 128.348 108.767 128.638 108.767 128.963C108.767 129.235 108.832 129.469 108.961 129.664C109.094 129.856 109.263 130.017 109.468 130.146C109.674 130.272 109.889 130.377 110.114 130.46C110.34 130.539 110.547 130.604 110.736 130.653L111.77 130.932C112.035 131.001 112.33 131.098 112.655 131.22C112.983 131.343 113.296 131.51 113.594 131.722C113.896 131.931 114.145 132.2 114.34 132.528C114.536 132.856 114.634 133.259 114.634 133.736C114.634 134.286 114.489 134.783 114.201 135.227C113.916 135.671 113.498 136.024 112.948 136.286C112.401 136.548 111.737 136.679 110.955 136.679C110.225 136.679 109.594 136.561 109.06 136.326C108.53 136.091 108.112 135.763 107.808 135.342C107.506 134.921 107.335 134.432 107.295 133.875H108.568C108.601 134.259 108.731 134.578 108.956 134.83C109.185 135.078 109.473 135.264 109.821 135.386C110.172 135.506 110.55 135.565 110.955 135.565C111.425 135.565 111.848 135.489 112.222 135.337C112.597 135.181 112.893 134.965 113.112 134.69C113.331 134.412 113.44 134.087 113.44 133.716C113.44 133.378 113.346 133.103 113.157 132.891C112.968 132.679 112.719 132.506 112.411 132.374C112.103 132.241 111.77 132.125 111.412 132.026L110.159 131.668C109.364 131.439 108.734 131.112 108.27 130.688C107.806 130.264 107.574 129.709 107.574 129.023C107.574 128.453 107.728 127.955 108.036 127.531C108.348 127.104 108.765 126.772 109.289 126.537C109.816 126.298 110.404 126.179 111.054 126.179C111.71 126.179 112.294 126.297 112.804 126.532C113.314 126.764 113.719 127.082 114.017 127.487C114.319 127.891 114.478 128.35 114.494 128.864H113.301ZM116.502 139.364V128.864H117.635V130.077H117.774C117.86 129.944 117.98 129.775 118.132 129.57C118.288 129.361 118.51 129.175 118.798 129.013C119.09 128.847 119.485 128.764 119.982 128.764C120.625 128.764 121.191 128.925 121.682 129.246C122.173 129.568 122.555 130.024 122.83 130.614C123.106 131.204 123.243 131.9 123.243 132.702C123.243 133.51 123.106 134.211 122.83 134.805C122.555 135.395 122.174 135.852 121.687 136.177C121.2 136.498 120.638 136.659 120.002 136.659C119.511 136.659 119.118 136.578 118.823 136.415C118.528 136.25 118.301 136.062 118.142 135.854C117.983 135.642 117.86 135.466 117.774 135.327H117.675V139.364H116.502ZM117.655 132.682C117.655 133.259 117.74 133.767 117.909 134.208C118.078 134.646 118.325 134.989 118.649 135.237C118.974 135.482 119.372 135.605 119.843 135.605C120.333 135.605 120.742 135.476 121.07 135.217C121.402 134.955 121.651 134.604 121.816 134.163C121.985 133.719 122.07 133.225 122.07 132.682C122.07 132.145 121.987 131.661 121.821 131.23C121.659 130.796 121.412 130.453 121.08 130.201C120.752 129.946 120.34 129.818 119.843 129.818C119.365 129.818 118.964 129.939 118.639 130.181C118.315 130.42 118.069 130.754 117.904 131.185C117.738 131.613 117.655 132.112 117.655 132.682ZM125.033 136.5V128.864H126.166V130.017H126.246C126.385 129.639 126.637 129.333 127.002 129.097C127.366 128.862 127.777 128.744 128.235 128.744C128.321 128.744 128.428 128.746 128.558 128.749C128.687 128.753 128.785 128.758 128.851 128.764V129.957C128.811 129.947 128.72 129.933 128.578 129.913C128.438 129.889 128.291 129.878 128.135 129.878C127.764 129.878 127.432 129.956 127.141 130.112C126.852 130.264 126.624 130.476 126.455 130.748C126.289 131.016 126.206 131.323 126.206 131.668V136.5H125.033ZM130.242 136.5V128.864H131.415V136.5H130.242ZM130.838 127.591C130.61 127.591 130.413 127.513 130.247 127.357C130.084 127.201 130.003 127.014 130.003 126.795C130.003 126.577 130.084 126.389 130.247 126.234C130.413 126.078 130.61 126 130.838 126C131.067 126 131.263 126.078 131.425 126.234C131.591 126.389 131.674 126.577 131.674 126.795C131.674 127.014 131.591 127.201 131.425 127.357C131.263 127.513 131.067 127.591 130.838 127.591ZM134.737 131.906V136.5H133.564V128.864H134.698V130.057H134.797C134.976 129.669 135.248 129.357 135.612 129.122C135.977 128.884 136.448 128.764 137.024 128.764C137.541 128.764 137.994 128.87 138.382 129.082C138.769 129.291 139.071 129.609 139.286 130.037C139.502 130.461 139.61 130.998 139.61 131.648V136.5H138.436V131.727C138.436 131.127 138.28 130.66 137.969 130.325C137.657 129.987 137.23 129.818 136.686 129.818C136.312 129.818 135.977 129.899 135.682 130.062C135.39 130.224 135.16 130.461 134.991 130.773C134.822 131.084 134.737 131.462 134.737 131.906ZM144.836 139.523C144.269 139.523 143.782 139.45 143.374 139.304C142.967 139.161 142.627 138.973 142.355 138.737C142.087 138.505 141.873 138.257 141.714 137.991L142.648 137.335C142.754 137.474 142.889 137.634 143.051 137.812C143.214 137.995 143.436 138.152 143.717 138.285C144.002 138.421 144.375 138.489 144.836 138.489C145.452 138.489 145.961 138.339 146.362 138.041C146.763 137.743 146.964 137.276 146.964 136.639V135.088H146.864C146.778 135.227 146.656 135.4 146.496 135.605C146.341 135.807 146.115 135.988 145.82 136.147C145.529 136.303 145.134 136.381 144.637 136.381C144.021 136.381 143.467 136.235 142.977 135.943C142.489 135.652 142.103 135.227 141.818 134.67C141.536 134.114 141.396 133.437 141.396 132.642C141.396 131.86 141.533 131.179 141.808 130.599C142.083 130.015 142.466 129.565 142.957 129.246C143.447 128.925 144.014 128.764 144.657 128.764C145.154 128.764 145.549 128.847 145.84 129.013C146.135 129.175 146.361 129.361 146.516 129.57C146.675 129.775 146.798 129.944 146.884 130.077H147.004V128.864H148.137V136.719C148.137 137.375 147.988 137.909 147.69 138.32C147.395 138.734 146.997 139.037 146.496 139.229C145.999 139.425 145.446 139.523 144.836 139.523ZM144.796 135.327C145.267 135.327 145.665 135.219 145.989 135.004C146.314 134.788 146.561 134.478 146.73 134.074C146.899 133.67 146.984 133.186 146.984 132.622C146.984 132.072 146.901 131.586 146.735 131.165C146.569 130.745 146.324 130.415 145.999 130.176C145.674 129.937 145.273 129.818 144.796 129.818C144.299 129.818 143.885 129.944 143.553 130.196C143.225 130.448 142.978 130.786 142.812 131.21C142.65 131.634 142.569 132.105 142.569 132.622C142.569 133.152 142.652 133.621 142.817 134.029C142.987 134.433 143.235 134.752 143.563 134.984C143.895 135.212 144.306 135.327 144.796 135.327ZM154.381 126.318H155.853L159.313 134.77H159.433L162.893 126.318H164.364V136.5H163.211V128.764H163.112L159.93 136.5H158.816L155.634 128.764H155.535V136.5H154.381V126.318ZM169.879 136.659C169.143 136.659 168.509 136.497 167.975 136.172C167.445 135.844 167.035 135.386 166.747 134.8C166.462 134.21 166.319 133.524 166.319 132.741C166.319 131.959 166.462 131.27 166.747 130.673C167.035 130.073 167.436 129.606 167.95 129.271C168.467 128.933 169.07 128.764 169.76 128.764C170.157 128.764 170.55 128.83 170.938 128.963C171.326 129.096 171.679 129.311 171.997 129.609C172.315 129.904 172.569 130.295 172.758 130.783C172.947 131.27 173.041 131.87 173.041 132.582V133.08H167.155V132.065H171.848C171.848 131.634 171.762 131.25 171.589 130.912C171.42 130.574 171.178 130.307 170.863 130.112C170.552 129.916 170.184 129.818 169.76 129.818C169.292 129.818 168.888 129.934 168.547 130.166C168.209 130.395 167.948 130.693 167.766 131.061C167.584 131.429 167.493 131.823 167.493 132.244V132.92C167.493 133.497 167.592 133.986 167.791 134.387C167.993 134.785 168.273 135.088 168.631 135.297C168.989 135.502 169.405 135.605 169.879 135.605C170.187 135.605 170.466 135.562 170.714 135.476C170.966 135.386 171.183 135.254 171.366 135.078C171.548 134.899 171.689 134.677 171.788 134.412L172.922 134.73C172.802 135.115 172.602 135.453 172.32 135.744C172.038 136.033 171.69 136.258 171.276 136.42C170.862 136.58 170.396 136.659 169.879 136.659ZM177.709 136.659C177.073 136.659 176.511 136.498 176.024 136.177C175.537 135.852 175.156 135.395 174.881 134.805C174.605 134.211 174.468 133.51 174.468 132.702C174.468 131.9 174.605 131.204 174.881 130.614C175.156 130.024 175.538 129.568 176.029 129.246C176.519 128.925 177.086 128.764 177.729 128.764C178.226 128.764 178.619 128.847 178.907 129.013C179.199 129.175 179.421 129.361 179.574 129.57C179.729 129.775 179.85 129.944 179.937 130.077H180.036V126.318H181.209V136.5H180.076V135.327H179.937C179.85 135.466 179.728 135.642 179.569 135.854C179.41 136.062 179.183 136.25 178.888 136.415C178.593 136.578 178.2 136.659 177.709 136.659ZM177.868 135.605C178.339 135.605 178.737 135.482 179.062 135.237C179.386 134.989 179.633 134.646 179.802 134.208C179.971 133.767 180.056 133.259 180.056 132.682C180.056 132.112 179.973 131.613 179.807 131.185C179.642 130.754 179.396 130.42 179.072 130.181C178.747 129.939 178.346 129.818 177.868 129.818C177.371 129.818 176.957 129.946 176.626 130.201C176.297 130.453 176.05 130.796 175.885 131.23C175.722 131.661 175.641 132.145 175.641 132.682C175.641 133.225 175.724 133.719 175.89 134.163C176.059 134.604 176.307 134.955 176.635 135.217C176.967 135.476 177.378 135.605 177.868 135.605ZM183.521 136.5V128.864H184.694V136.5H183.521ZM184.118 127.591C183.889 127.591 183.692 127.513 183.526 127.357C183.364 127.201 183.282 127.014 183.282 126.795C183.282 126.577 183.364 126.389 183.526 126.234C183.692 126.078 183.889 126 184.118 126C184.346 126 184.542 126.078 184.704 126.234C184.87 126.389 184.953 126.577 184.953 126.795C184.953 127.014 184.87 127.201 184.704 127.357C184.542 127.513 184.346 127.591 184.118 127.591ZM189.946 136.659C189.23 136.659 188.613 136.49 188.096 136.152C187.579 135.814 187.181 135.348 186.903 134.755C186.625 134.162 186.485 133.484 186.485 132.722C186.485 131.946 186.628 131.262 186.913 130.668C187.201 130.072 187.602 129.606 188.116 129.271C188.633 128.933 189.236 128.764 189.926 128.764C190.463 128.764 190.947 128.864 191.377 129.062C191.808 129.261 192.161 129.54 192.436 129.898C192.712 130.256 192.882 130.673 192.949 131.151H191.775C191.686 130.803 191.487 130.494 191.179 130.226C190.874 129.954 190.463 129.818 189.946 129.818C189.488 129.818 189.087 129.937 188.743 130.176C188.401 130.411 188.134 130.745 187.942 131.175C187.753 131.603 187.659 132.105 187.659 132.682C187.659 133.272 187.752 133.786 187.937 134.223C188.126 134.661 188.391 135 188.733 135.242C189.077 135.484 189.482 135.605 189.946 135.605C190.251 135.605 190.527 135.552 190.776 135.446C191.025 135.34 191.235 135.188 191.407 134.989C191.58 134.79 191.702 134.551 191.775 134.273H192.949C192.882 134.723 192.718 135.129 192.456 135.491C192.198 135.849 191.855 136.134 191.427 136.346C191.003 136.555 190.509 136.659 189.946 136.659ZM196.911 136.679C196.427 136.679 195.988 136.588 195.593 136.406C195.199 136.22 194.886 135.953 194.654 135.605C194.422 135.254 194.306 134.83 194.306 134.332C194.306 133.895 194.392 133.54 194.564 133.268C194.737 132.993 194.967 132.778 195.255 132.622C195.544 132.466 195.862 132.35 196.21 132.274C196.561 132.195 196.914 132.132 197.269 132.085C197.733 132.026 198.109 131.981 198.397 131.951C198.689 131.918 198.901 131.863 199.034 131.787C199.17 131.711 199.238 131.578 199.238 131.389V131.349C199.238 130.859 199.103 130.478 198.835 130.206C198.57 129.934 198.167 129.798 197.627 129.798C197.067 129.798 196.627 129.921 196.309 130.166C195.991 130.411 195.767 130.673 195.638 130.952L194.525 130.554C194.723 130.09 194.989 129.729 195.32 129.47C195.655 129.208 196.019 129.026 196.414 128.923C196.811 128.817 197.203 128.764 197.587 128.764C197.832 128.764 198.114 128.794 198.432 128.854C198.754 128.91 199.064 129.028 199.362 129.207C199.663 129.386 199.914 129.656 200.113 130.017C200.311 130.378 200.411 130.862 200.411 131.469V136.5H199.238V135.466H199.178C199.098 135.632 198.966 135.809 198.78 135.998C198.595 136.187 198.348 136.348 198.039 136.48C197.731 136.613 197.355 136.679 196.911 136.679ZM197.09 135.625C197.554 135.625 197.945 135.534 198.263 135.352C198.585 135.169 198.827 134.934 198.989 134.646C199.155 134.357 199.238 134.054 199.238 133.736V132.662C199.188 132.722 199.078 132.776 198.909 132.826C198.744 132.872 198.551 132.914 198.333 132.95C198.117 132.983 197.907 133.013 197.701 133.04C197.499 133.063 197.335 133.083 197.209 133.099C196.904 133.139 196.619 133.204 196.354 133.293C196.092 133.379 195.88 133.51 195.718 133.686C195.559 133.858 195.479 134.094 195.479 134.392C195.479 134.8 195.63 135.108 195.931 135.317C196.236 135.522 196.623 135.625 197.09 135.625ZM203.726 126.318V136.5H202.552V126.318H203.726Z" fill="#21201D"/>
<path d="M110.472 147.773V156.5H109.415V148.881H109.364L107.233 150.295V149.222L109.415 147.773H110.472ZM112.982 156.5V155.733L115.862 152.58C116.2 152.21 116.479 151.889 116.697 151.616C116.916 151.341 117.078 151.082 117.183 150.841C117.291 150.597 117.345 150.341 117.345 150.074C117.345 149.767 117.271 149.501 117.124 149.277C116.979 149.053 116.78 148.879 116.527 148.757C116.274 148.635 115.99 148.574 115.675 148.574C115.339 148.574 115.047 148.643 114.797 148.783C114.55 148.919 114.358 149.111 114.222 149.358C114.088 149.605 114.021 149.895 114.021 150.227H113.016C113.016 149.716 113.134 149.267 113.369 148.881C113.605 148.494 113.926 148.193 114.332 147.977C114.741 147.761 115.2 147.653 115.709 147.653C116.22 147.653 116.673 147.761 117.068 147.977C117.463 148.193 117.773 148.484 117.997 148.851C118.222 149.217 118.334 149.625 118.334 150.074C118.334 150.395 118.276 150.709 118.159 151.016C118.045 151.32 117.847 151.659 117.562 152.034C117.281 152.406 116.891 152.861 116.391 153.398L114.43 155.494V155.562H118.487V156.5H112.982ZM123.196 156.619C122.634 156.619 122.132 156.523 121.692 156.33C121.254 156.136 120.906 155.868 120.648 155.524C120.392 155.178 120.253 154.776 120.23 154.318H121.304C121.327 154.599 121.423 154.842 121.594 155.047C121.764 155.249 121.987 155.405 122.263 155.516C122.538 155.626 122.844 155.682 123.179 155.682C123.554 155.682 123.886 155.616 124.176 155.486C124.466 155.355 124.693 155.173 124.858 154.94C125.023 154.707 125.105 154.438 125.105 154.131C125.105 153.81 125.026 153.527 124.866 153.283C124.707 153.036 124.474 152.842 124.168 152.703C123.861 152.564 123.486 152.494 123.043 152.494H122.344V151.557H123.043C123.389 151.557 123.693 151.494 123.955 151.369C124.219 151.244 124.425 151.068 124.572 150.841C124.723 150.614 124.798 150.347 124.798 150.04C124.798 149.744 124.733 149.487 124.602 149.268C124.472 149.05 124.287 148.879 124.048 148.757C123.813 148.635 123.534 148.574 123.213 148.574C122.912 148.574 122.628 148.629 122.361 148.74C122.097 148.848 121.881 149.006 121.713 149.213C121.545 149.418 121.455 149.665 121.44 149.955H120.418C120.435 149.497 120.572 149.097 120.831 148.753C121.089 148.406 121.428 148.136 121.845 147.943C122.266 147.75 122.727 147.653 123.23 147.653C123.77 147.653 124.233 147.763 124.619 147.982C125.006 148.197 125.303 148.483 125.51 148.838C125.717 149.193 125.821 149.577 125.821 149.989C125.821 150.48 125.692 150.899 125.433 151.246C125.178 151.592 124.83 151.832 124.389 151.966V152.034C124.94 152.125 125.371 152.359 125.68 152.737C125.99 153.112 126.145 153.577 126.145 154.131C126.145 154.605 126.016 155.031 125.757 155.409C125.501 155.784 125.152 156.08 124.709 156.295C124.266 156.511 123.761 156.619 123.196 156.619ZM131.416 147.773H132.678L135.643 155.017H135.746L138.712 147.773H139.973V156.5H138.984V149.869H138.899L136.172 156.5H135.217L132.49 149.869H132.405V156.5H131.416V147.773ZM143.882 156.653C143.467 156.653 143.091 156.575 142.752 156.419C142.414 156.26 142.146 156.031 141.947 155.733C141.748 155.432 141.649 155.068 141.649 154.642C141.649 154.267 141.723 153.963 141.87 153.73C142.018 153.494 142.216 153.31 142.463 153.176C142.71 153.043 142.983 152.943 143.281 152.878C143.582 152.81 143.885 152.756 144.189 152.716C144.586 152.665 144.909 152.626 145.156 152.601C145.406 152.572 145.588 152.526 145.701 152.46C145.818 152.395 145.876 152.281 145.876 152.119V152.085C145.876 151.665 145.761 151.338 145.531 151.105C145.304 150.872 144.958 150.756 144.495 150.756C144.015 150.756 143.639 150.861 143.366 151.071C143.093 151.281 142.902 151.506 142.791 151.744L141.836 151.403C142.007 151.006 142.234 150.696 142.518 150.474C142.805 150.25 143.118 150.094 143.456 150.006C143.797 149.915 144.132 149.869 144.461 149.869C144.672 149.869 144.913 149.895 145.186 149.946C145.461 149.994 145.727 150.095 145.983 150.249C146.241 150.402 146.456 150.634 146.626 150.943C146.797 151.253 146.882 151.668 146.882 152.188V156.5H145.876V155.614H145.825C145.757 155.756 145.643 155.908 145.484 156.07C145.325 156.232 145.113 156.369 144.849 156.483C144.585 156.597 144.262 156.653 143.882 156.653ZM144.035 155.75C144.433 155.75 144.768 155.672 145.041 155.516C145.316 155.359 145.524 155.158 145.663 154.911C145.805 154.663 145.876 154.403 145.876 154.131V153.21C145.833 153.261 145.74 153.308 145.595 153.351C145.453 153.391 145.288 153.426 145.1 153.457C144.916 153.486 144.735 153.511 144.559 153.534C144.386 153.554 144.245 153.571 144.137 153.585C143.876 153.619 143.632 153.675 143.404 153.751C143.18 153.825 142.998 153.937 142.859 154.088C142.723 154.236 142.654 154.437 142.654 154.693C142.654 155.043 142.784 155.307 143.042 155.486C143.304 155.662 143.635 155.75 144.035 155.75ZM148.717 156.5V149.955H149.723V156.5H148.717ZM149.229 148.864C149.033 148.864 148.864 148.797 148.722 148.663C148.582 148.53 148.513 148.369 148.513 148.182C148.513 147.994 148.582 147.834 148.722 147.7C148.864 147.567 149.033 147.5 149.229 147.5C149.425 147.5 149.592 147.567 149.732 147.7C149.874 147.834 149.945 147.994 149.945 148.182C149.945 148.369 149.874 148.53 149.732 148.663C149.592 148.797 149.425 148.864 149.229 148.864ZM152.571 152.562V156.5H151.565V149.955H152.537V150.977H152.622C152.775 150.645 153.008 150.378 153.321 150.176C153.633 149.972 154.037 149.869 154.531 149.869C154.974 149.869 155.362 149.96 155.694 150.142C156.027 150.321 156.285 150.594 156.47 150.96C156.654 151.324 156.747 151.784 156.747 152.341V156.5H155.741V152.409C155.741 151.895 155.608 151.494 155.341 151.207C155.074 150.918 154.707 150.773 154.241 150.773C153.92 150.773 153.633 150.842 153.38 150.982C153.13 151.121 152.933 151.324 152.788 151.591C152.643 151.858 152.571 152.182 152.571 152.562ZM166.869 149.955C166.817 149.523 166.61 149.188 166.246 148.949C165.883 148.71 165.437 148.591 164.908 148.591C164.522 148.591 164.184 148.653 163.894 148.778C163.607 148.903 163.383 149.075 163.221 149.294C163.062 149.513 162.982 149.761 162.982 150.04C162.982 150.273 163.038 150.473 163.148 150.641C163.262 150.805 163.407 150.943 163.583 151.054C163.759 151.162 163.944 151.251 164.137 151.322C164.33 151.391 164.508 151.446 164.67 151.489L165.556 151.727C165.783 151.787 166.036 151.869 166.315 151.974C166.596 152.08 166.864 152.223 167.12 152.405C167.379 152.584 167.592 152.814 167.759 153.095C167.927 153.376 168.011 153.722 168.011 154.131C168.011 154.602 167.887 155.028 167.64 155.409C167.396 155.79 167.038 156.092 166.566 156.317C166.097 156.541 165.528 156.653 164.857 156.653C164.232 156.653 163.691 156.553 163.234 156.351C162.779 156.149 162.421 155.868 162.16 155.507C161.901 155.146 161.755 154.727 161.721 154.25H162.812C162.84 154.58 162.951 154.852 163.144 155.068C163.34 155.281 163.587 155.44 163.886 155.545C164.187 155.648 164.511 155.699 164.857 155.699C165.261 155.699 165.623 155.634 165.944 155.503C166.265 155.369 166.519 155.185 166.707 154.949C166.894 154.71 166.988 154.432 166.988 154.114C166.988 153.824 166.907 153.588 166.745 153.406C166.583 153.224 166.37 153.077 166.106 152.963C165.842 152.849 165.556 152.75 165.249 152.665L164.175 152.358C163.494 152.162 162.954 151.882 162.556 151.518C162.158 151.155 161.96 150.679 161.96 150.091C161.96 149.602 162.092 149.176 162.356 148.812C162.623 148.446 162.981 148.162 163.43 147.96C163.881 147.756 164.386 147.653 164.942 147.653C165.505 147.653 166.005 147.754 166.442 147.956C166.88 148.155 167.227 148.428 167.482 148.774C167.741 149.121 167.877 149.514 167.891 149.955H166.869ZM172.458 149.955V150.807H169.066V149.955H172.458ZM170.055 148.386H171.061V154.625C171.061 154.909 171.102 155.122 171.184 155.264C171.27 155.403 171.377 155.497 171.508 155.545C171.642 155.591 171.782 155.614 171.93 155.614C172.041 155.614 172.132 155.608 172.203 155.597C172.274 155.582 172.331 155.571 172.373 155.562L172.578 156.466C172.51 156.491 172.414 156.517 172.292 156.543C172.17 156.571 172.015 156.585 171.828 156.585C171.544 156.585 171.265 156.524 170.993 156.402C170.723 156.28 170.498 156.094 170.319 155.844C170.143 155.594 170.055 155.278 170.055 154.898V148.386ZM173.971 156.5V149.955H174.943V150.943H175.011C175.13 150.619 175.346 150.357 175.659 150.155C175.971 149.953 176.324 149.852 176.716 149.852C176.789 149.852 176.882 149.854 176.993 149.857C177.103 149.859 177.187 149.864 177.244 149.869V150.892C177.21 150.884 177.132 150.871 177.01 150.854C176.89 150.834 176.764 150.824 176.63 150.824C176.312 150.824 176.028 150.891 175.778 151.024C175.531 151.155 175.335 151.337 175.19 151.57C175.048 151.8 174.977 152.062 174.977 152.358V156.5H173.971ZM180.981 156.636C180.35 156.636 179.806 156.497 179.349 156.219C178.895 155.938 178.544 155.545 178.297 155.043C178.052 154.537 177.93 153.949 177.93 153.278C177.93 152.608 178.052 152.017 178.297 151.506C178.544 150.991 178.887 150.591 179.328 150.304C179.771 150.014 180.288 149.869 180.879 149.869C181.22 149.869 181.556 149.926 181.889 150.04C182.221 150.153 182.524 150.338 182.797 150.594C183.069 150.847 183.287 151.182 183.449 151.599C183.61 152.017 183.691 152.531 183.691 153.142V153.568H178.646V152.699H182.669C182.669 152.33 182.595 152 182.447 151.71C182.302 151.42 182.095 151.192 181.825 151.024C181.558 150.857 181.243 150.773 180.879 150.773C180.478 150.773 180.132 150.872 179.839 151.071C179.549 151.267 179.326 151.523 179.17 151.838C179.014 152.153 178.936 152.491 178.936 152.852V153.432C178.936 153.926 179.021 154.345 179.191 154.689C179.365 155.03 179.605 155.29 179.912 155.469C180.218 155.645 180.575 155.733 180.981 155.733C181.245 155.733 181.484 155.696 181.697 155.622C181.913 155.545 182.099 155.432 182.255 155.281C182.412 155.128 182.532 154.937 182.618 154.71L183.589 154.983C183.487 155.312 183.315 155.602 183.074 155.852C182.832 156.099 182.534 156.293 182.179 156.432C181.824 156.568 181.424 156.636 180.981 156.636ZM187.966 156.636C187.335 156.636 186.791 156.497 186.333 156.219C185.879 155.938 185.528 155.545 185.281 155.043C185.037 154.537 184.914 153.949 184.914 153.278C184.914 152.608 185.037 152.017 185.281 151.506C185.528 150.991 185.872 150.591 186.312 150.304C186.755 150.014 187.272 149.869 187.863 149.869C188.204 149.869 188.541 149.926 188.873 150.04C189.206 150.153 189.508 150.338 189.781 150.594C190.054 150.847 190.271 151.182 190.433 151.599C190.595 152.017 190.676 152.531 190.676 153.142V153.568H185.63V152.699H189.653C189.653 152.33 189.579 152 189.431 151.71C189.287 151.42 189.079 151.192 188.809 151.024C188.542 150.857 188.227 150.773 187.863 150.773C187.463 150.773 187.116 150.872 186.824 151.071C186.534 151.267 186.311 151.523 186.154 151.838C185.998 152.153 185.92 152.491 185.92 152.852V153.432C185.92 153.926 186.005 154.345 186.176 154.689C186.349 155.03 186.589 155.29 186.896 155.469C187.203 155.645 187.559 155.733 187.966 155.733C188.23 155.733 188.468 155.696 188.681 155.622C188.897 155.545 189.083 155.432 189.24 155.281C189.396 155.128 189.517 154.937 189.602 154.71L190.574 154.983C190.471 155.312 190.299 155.602 190.058 155.852C189.816 156.099 189.518 156.293 189.163 156.432C188.808 156.568 188.409 156.636 187.966 156.636ZM195.052 149.955V150.807H191.66V149.955H195.052ZM192.649 148.386H193.654V154.625C193.654 154.909 193.696 155.122 193.778 155.264C193.863 155.403 193.971 155.497 194.102 155.545C194.235 155.591 194.376 155.614 194.524 155.614C194.635 155.614 194.725 155.608 194.797 155.597C194.868 155.582 194.924 155.571 194.967 155.562L195.172 156.466C195.103 156.491 195.008 156.517 194.886 156.543C194.764 156.571 194.609 156.585 194.422 156.585C194.137 156.585 193.859 156.524 193.586 156.402C193.316 156.28 193.092 156.094 192.913 155.844C192.737 155.594 192.649 155.278 192.649 154.898V148.386ZM198.065 155.307L197.997 155.767C197.949 156.091 197.875 156.438 197.775 156.807C197.679 157.176 197.578 157.524 197.473 157.851C197.368 158.178 197.281 158.438 197.213 158.631H196.446C196.483 158.449 196.531 158.209 196.591 157.911C196.65 157.612 196.71 157.278 196.77 156.909C196.832 156.543 196.883 156.168 196.923 155.784L196.974 155.307H198.065ZM206.133 156.5H203.44V147.773H206.252C207.099 147.773 207.823 147.947 208.425 148.297C209.028 148.643 209.489 149.142 209.81 149.793C210.131 150.44 210.292 151.216 210.292 152.119C210.292 153.028 210.13 153.811 209.806 154.467C209.482 155.121 209.011 155.624 208.391 155.976C207.772 156.325 207.019 156.5 206.133 156.5ZM204.496 155.562H206.065C206.786 155.562 207.384 155.423 207.859 155.145C208.333 154.866 208.687 154.47 208.92 153.956C209.153 153.442 209.269 152.83 209.269 152.119C209.269 151.415 209.154 150.808 208.924 150.3C208.694 149.788 208.35 149.396 207.893 149.124C207.435 148.848 206.866 148.71 206.184 148.71H204.496V155.562ZM214.673 156.636C214.042 156.636 213.498 156.497 213.04 156.219C212.586 155.938 212.235 155.545 211.988 155.043C211.744 154.537 211.621 153.949 211.621 153.278C211.621 152.608 211.744 152.017 211.988 151.506C212.235 150.991 212.579 150.591 213.019 150.304C213.462 150.014 213.979 149.869 214.57 149.869C214.911 149.869 215.248 149.926 215.58 150.04C215.913 150.153 216.215 150.338 216.488 150.594C216.761 150.847 216.978 151.182 217.14 151.599C217.302 152.017 217.383 152.531 217.383 153.142V153.568H212.337V152.699H216.36C216.36 152.33 216.286 152 216.138 151.71C215.994 151.42 215.786 151.192 215.516 151.024C215.249 150.857 214.934 150.773 214.57 150.773C214.17 150.773 213.823 150.872 213.531 151.071C213.241 151.267 213.018 151.523 212.862 151.838C212.705 152.153 212.627 152.491 212.627 152.852V153.432C212.627 153.926 212.712 154.345 212.883 154.689C213.056 155.03 213.296 155.29 213.603 155.469C213.91 155.645 214.266 155.733 214.673 155.733C214.937 155.733 215.175 155.696 215.388 155.622C215.604 155.545 215.79 155.432 215.947 155.281C216.103 155.128 216.224 154.937 216.309 154.71L217.281 154.983C217.178 155.312 217.006 155.602 216.765 155.852C216.523 156.099 216.225 156.293 215.87 156.432C215.515 156.568 215.116 156.636 214.673 156.636ZM219.918 152.562V156.5H218.913V149.955H219.884V150.977H219.969C220.123 150.645 220.356 150.378 220.668 150.176C220.981 149.972 221.384 149.869 221.879 149.869C222.322 149.869 222.71 149.96 223.042 150.142C223.374 150.321 223.633 150.594 223.817 150.96C224.002 151.324 224.094 151.784 224.094 152.341V156.5H223.089V152.409C223.089 151.895 222.955 151.494 222.688 151.207C222.421 150.918 222.055 150.773 221.589 150.773C221.268 150.773 220.981 150.842 220.728 150.982C220.478 151.121 220.281 151.324 220.136 151.591C219.991 151.858 219.918 152.182 219.918 152.562ZM231.05 149.955L228.63 156.5H227.607L225.186 149.955H226.277L228.084 155.17H228.152L229.959 149.955H231.05ZM234.887 156.636C234.257 156.636 233.713 156.497 233.255 156.219C232.801 155.938 232.45 155.545 232.203 155.043C231.958 154.537 231.836 153.949 231.836 153.278C231.836 152.608 231.958 152.017 232.203 151.506C232.45 150.991 232.794 150.591 233.234 150.304C233.677 150.014 234.194 149.869 234.785 149.869C235.126 149.869 235.463 149.926 235.795 150.04C236.127 150.153 236.43 150.338 236.703 150.594C236.975 150.847 237.193 151.182 237.355 151.599C237.517 152.017 237.598 152.531 237.598 153.142V153.568H232.552V152.699H236.575C236.575 152.33 236.501 152 236.353 151.71C236.208 151.42 236.001 151.192 235.731 151.024C235.464 150.857 235.149 150.773 234.785 150.773C234.385 150.773 234.038 150.872 233.745 151.071C233.456 151.267 233.233 151.523 233.076 151.838C232.92 152.153 232.842 152.491 232.842 152.852V153.432C232.842 153.926 232.927 154.345 233.098 154.689C233.271 155.03 233.511 155.29 233.818 155.469C234.125 155.645 234.481 155.733 234.887 155.733C235.152 155.733 235.39 155.696 235.603 155.622C235.819 155.545 236.005 155.432 236.162 155.281C236.318 155.128 236.439 154.937 236.524 154.71L237.495 154.983C237.393 155.312 237.221 155.602 236.98 155.852C236.738 156.099 236.44 156.293 236.085 156.432C235.73 156.568 235.331 156.636 234.887 156.636ZM239.127 156.5V149.955H240.099V150.943H240.167C240.287 150.619 240.502 150.357 240.815 150.155C241.127 149.953 241.48 149.852 241.872 149.852C241.946 149.852 242.038 149.854 242.149 149.857C242.26 149.859 242.343 149.864 242.4 149.869V150.892C242.366 150.884 242.288 150.871 242.166 150.854C242.047 150.834 241.92 150.824 241.787 150.824C241.468 150.824 241.184 150.891 240.934 151.024C240.687 151.155 240.491 151.337 240.346 151.57C240.204 151.8 240.133 152.062 240.133 152.358V156.5H239.127ZM244.342 155.307L244.274 155.767C244.226 156.091 244.152 156.438 244.053 156.807C243.956 157.176 243.855 157.524 243.75 157.851C243.645 158.178 243.558 158.438 243.49 158.631H242.723C242.76 158.449 242.808 158.209 242.868 157.911C242.928 157.612 242.987 157.278 243.047 156.909C243.109 156.543 243.161 156.168 243.2 155.784L243.251 155.307H244.342ZM256.74 150.5H255.683C255.62 150.196 255.511 149.929 255.355 149.699C255.201 149.469 255.014 149.276 254.792 149.119C254.574 148.96 254.331 148.841 254.064 148.761C253.797 148.682 253.518 148.642 253.228 148.642C252.7 148.642 252.221 148.776 251.792 149.043C251.366 149.31 251.027 149.703 250.774 150.223C250.524 150.743 250.399 151.381 250.399 152.136C250.399 152.892 250.524 153.53 250.774 154.05C251.027 154.57 251.366 154.963 251.792 155.23C252.221 155.497 252.7 155.631 253.228 155.631C253.518 155.631 253.797 155.591 254.064 155.511C254.331 155.432 254.574 155.314 254.792 155.158C255.014 154.999 255.201 154.804 255.355 154.574C255.511 154.341 255.62 154.074 255.683 153.773H256.74C256.66 154.219 256.515 154.618 256.305 154.97C256.095 155.322 255.833 155.622 255.521 155.869C255.208 156.114 254.858 156.3 254.468 156.428C254.082 156.555 253.669 156.619 253.228 156.619C252.484 156.619 251.822 156.438 251.243 156.074C250.663 155.71 250.207 155.193 249.875 154.523C249.542 153.852 249.376 153.057 249.376 152.136C249.376 151.216 249.542 150.42 249.875 149.75C250.207 149.08 250.663 148.562 251.243 148.199C251.822 147.835 252.484 147.653 253.228 147.653C253.669 147.653 254.082 147.717 254.468 147.845C254.858 147.973 255.208 148.161 255.521 148.408C255.833 148.652 256.095 148.95 256.305 149.303C256.515 149.652 256.66 150.051 256.74 150.5ZM265.811 152.136C265.811 153.057 265.645 153.852 265.312 154.523C264.98 155.193 264.524 155.71 263.945 156.074C263.365 156.438 262.703 156.619 261.959 156.619C261.214 156.619 260.553 156.438 259.973 156.074C259.393 155.71 258.938 155.193 258.605 154.523C258.273 153.852 258.107 153.057 258.107 152.136C258.107 151.216 258.273 150.42 258.605 149.75C258.938 149.08 259.393 148.562 259.973 148.199C260.553 147.835 261.214 147.653 261.959 147.653C262.703 147.653 263.365 147.835 263.945 148.199C264.524 148.562 264.98 149.08 265.312 149.75C265.645 150.42 265.811 151.216 265.811 152.136ZM264.788 152.136C264.788 151.381 264.662 150.743 264.409 150.223C264.159 149.703 263.82 149.31 263.391 149.043C262.964 148.776 262.487 148.642 261.959 148.642C261.43 148.642 260.952 148.776 260.523 149.043C260.097 149.31 259.757 149.703 259.504 150.223C259.254 150.743 259.129 151.381 259.129 152.136C259.129 152.892 259.254 153.53 259.504 154.05C259.757 154.57 260.097 154.963 260.523 155.23C260.952 155.497 261.43 155.631 261.959 155.631C262.487 155.631 262.964 155.497 263.391 155.23C263.82 154.963 264.159 154.57 264.409 154.05C264.662 153.53 264.788 152.892 264.788 152.136Z" fill="#8E8C88"/>
<path d="M89.5 196.062C90.7426 196.062 91.75 195.055 91.75 193.812C91.75 192.57 90.7426 191.562 89.5 191.562C88.2574 191.562 87.25 192.57 87.25 193.812C87.25 195.055 88.2574 196.062 89.5 196.062Z" stroke="#21201D" stroke-width="1.34" stroke-linecap="round" stroke-linejoin="round"/>
<path d="M95.125 193.812C95.125 198.875 89.5 202.812 89.5 202.812C89.5 202.812 83.875 198.875 83.875 193.812C83.875 192.321 84.4676 190.89 85.5225 189.835C86.5774 188.78 88.0082 188.188 89.5 188.188C90.9918 188.188 92.4226 188.78 93.4775 189.835C94.5324 190.89 95.125 192.321 95.125 193.812Z" stroke="#21201D" stroke-width="1.34" stroke-linecap="round" stroke-linejoin="round"/>
<path d="M113.301 182.864C113.241 182.36 113 181.969 112.575 181.69C112.151 181.412 111.631 181.273 111.014 181.273C110.563 181.273 110.169 181.346 109.831 181.491C109.496 181.637 109.234 181.838 109.045 182.093C108.86 182.348 108.767 182.638 108.767 182.963C108.767 183.235 108.832 183.469 108.961 183.664C109.094 183.856 109.263 184.017 109.468 184.146C109.674 184.272 109.889 184.377 110.114 184.46C110.34 184.539 110.547 184.604 110.736 184.653L111.77 184.932C112.035 185.001 112.33 185.098 112.655 185.22C112.983 185.343 113.296 185.51 113.594 185.722C113.896 185.931 114.145 186.2 114.34 186.528C114.536 186.856 114.634 187.259 114.634 187.736C114.634 188.286 114.489 188.783 114.201 189.227C113.916 189.671 113.498 190.024 112.948 190.286C112.401 190.548 111.737 190.679 110.955 190.679C110.225 190.679 109.594 190.561 109.06 190.326C108.53 190.091 108.112 189.763 107.808 189.342C107.506 188.921 107.335 188.432 107.295 187.875H108.568C108.601 188.259 108.731 188.578 108.956 188.83C109.185 189.078 109.473 189.264 109.821 189.386C110.172 189.506 110.55 189.565 110.955 189.565C111.425 189.565 111.848 189.489 112.222 189.337C112.597 189.181 112.893 188.965 113.112 188.69C113.331 188.412 113.44 188.087 113.44 187.716C113.44 187.378 113.346 187.103 113.157 186.891C112.968 186.679 112.719 186.506 112.411 186.374C112.103 186.241 111.77 186.125 111.412 186.026L110.159 185.668C109.364 185.439 108.734 185.112 108.27 184.688C107.806 184.264 107.574 183.709 107.574 183.023C107.574 182.453 107.728 181.955 108.036 181.531C108.348 181.104 108.765 180.772 109.289 180.537C109.816 180.298 110.404 180.179 111.054 180.179C111.71 180.179 112.294 180.297 112.804 180.532C113.314 180.764 113.719 181.082 114.017 181.487C114.319 181.891 114.478 182.35 114.494 182.864H113.301ZM116.502 193.364V182.864H117.635V184.077H117.774C117.86 183.944 117.98 183.775 118.132 183.57C118.288 183.361 118.51 183.175 118.798 183.013C119.09 182.847 119.485 182.764 119.982 182.764C120.625 182.764 121.191 182.925 121.682 183.246C122.173 183.568 122.555 184.024 122.83 184.614C123.106 185.204 123.243 185.9 123.243 186.702C123.243 187.51 123.106 188.211 122.83 188.805C122.555 189.395 122.174 189.852 121.687 190.177C121.2 190.498 120.638 190.659 120.002 190.659C119.511 190.659 119.118 190.578 118.823 190.415C118.528 190.25 118.301 190.062 118.142 189.854C117.983 189.642 117.86 189.466 117.774 189.327H117.675V193.364H116.502ZM117.655 186.682C117.655 187.259 117.74 187.767 117.909 188.208C118.078 188.646 118.325 188.989 118.649 189.237C118.974 189.482 119.372 189.605 119.843 189.605C120.333 189.605 120.742 189.476 121.07 189.217C121.402 188.955 121.651 188.604 121.816 188.163C121.985 187.719 122.07 187.225 122.07 186.682C122.07 186.145 121.987 185.661 121.821 185.23C121.659 184.796 121.412 184.453 121.08 184.201C120.752 183.946 120.34 183.818 119.843 183.818C119.365 183.818 118.964 183.939 118.639 184.181C118.315 184.42 118.069 184.754 117.904 185.185C117.738 185.613 117.655 186.112 117.655 186.682ZM125.033 190.5V182.864H126.166V184.017H126.246C126.385 183.639 126.637 183.333 127.002 183.097C127.366 182.862 127.777 182.744 128.235 182.744C128.321 182.744 128.428 182.746 128.558 182.749C128.687 182.753 128.785 182.758 128.851 182.764V183.957C128.811 183.947 128.72 183.933 128.578 183.913C128.438 183.889 128.291 183.878 128.135 183.878C127.764 183.878 127.432 183.956 127.141 184.112C126.852 184.264 126.624 184.476 126.455 184.748C126.289 185.016 126.206 185.323 126.206 185.668V190.5H125.033ZM130.242 190.5V182.864H131.415V190.5H130.242ZM130.838 181.591C130.61 181.591 130.413 181.513 130.247 181.357C130.084 181.201 130.003 181.014 130.003 180.795C130.003 180.577 130.084 180.389 130.247 180.234C130.413 180.078 130.61 180 130.838 180C131.067 180 131.263 180.078 131.425 180.234C131.591 180.389 131.674 180.577 131.674 180.795C131.674 181.014 131.591 181.201 131.425 181.357C131.263 181.513 131.067 181.591 130.838 181.591ZM134.737 185.906V190.5H133.564V182.864H134.698V184.057H134.797C134.976 183.669 135.248 183.357 135.612 183.122C135.977 182.884 136.448 182.764 137.024 182.764C137.541 182.764 137.994 182.87 138.382 183.082C138.769 183.291 139.071 183.609 139.286 184.037C139.502 184.461 139.61 184.998 139.61 185.648V190.5H138.436V185.727C138.436 185.127 138.28 184.66 137.969 184.325C137.657 183.987 137.23 183.818 136.686 183.818C136.312 183.818 135.977 183.899 135.682 184.062C135.39 184.224 135.16 184.461 134.991 184.773C134.822 185.084 134.737 185.462 134.737 185.906ZM144.836 193.523C144.269 193.523 143.782 193.45 143.374 193.304C142.967 193.161 142.627 192.973 142.355 192.737C142.087 192.505 141.873 192.257 141.714 191.991L142.648 191.335C142.754 191.474 142.889 191.634 143.051 191.812C143.214 191.995 143.436 192.152 143.717 192.285C144.002 192.421 144.375 192.489 144.836 192.489C145.452 192.489 145.961 192.339 146.362 192.041C146.763 191.743 146.964 191.276 146.964 190.639V189.088H146.864C146.778 189.227 146.656 189.4 146.496 189.605C146.341 189.807 146.115 189.988 145.82 190.147C145.529 190.303 145.134 190.381 144.637 190.381C144.021 190.381 143.467 190.235 142.977 189.943C142.489 189.652 142.103 189.227 141.818 188.67C141.536 188.114 141.396 187.437 141.396 186.642C141.396 185.86 141.533 185.179 141.808 184.599C142.083 184.015 142.466 183.565 142.957 183.246C143.447 182.925 144.014 182.764 144.657 182.764C145.154 182.764 145.549 182.847 145.84 183.013C146.135 183.175 146.361 183.361 146.516 183.57C146.675 183.775 146.798 183.944 146.884 184.077H147.004V182.864H148.137V190.719C148.137 191.375 147.988 191.909 147.69 192.32C147.395 192.734 146.997 193.037 146.496 193.229C145.999 193.425 145.446 193.523 144.836 193.523ZM144.796 189.327C145.267 189.327 145.665 189.219 145.989 189.004C146.314 188.788 146.561 188.478 146.73 188.074C146.899 187.67 146.984 187.186 146.984 186.622C146.984 186.072 146.901 185.586 146.735 185.165C146.569 184.745 146.324 184.415 145.999 184.176C145.674 183.937 145.273 183.818 144.796 183.818C144.299 183.818 143.885 183.944 143.553 184.196C143.225 184.448 142.978 184.786 142.812 185.21C142.65 185.634 142.569 186.105 142.569 186.622C142.569 187.152 142.652 187.621 142.817 188.029C142.987 188.433 143.235 188.752 143.563 188.984C143.895 189.212 144.306 189.327 144.796 189.327ZM154.381 180.318H155.853L159.313 188.77H159.433L162.893 180.318H164.364V190.5H163.211V182.764H163.112L159.93 190.5H158.816L155.634 182.764H155.535V190.5H154.381V180.318ZM169.879 190.659C169.143 190.659 168.509 190.497 167.975 190.172C167.445 189.844 167.035 189.386 166.747 188.8C166.462 188.21 166.319 187.524 166.319 186.741C166.319 185.959 166.462 185.27 166.747 184.673C167.035 184.073 167.436 183.606 167.95 183.271C168.467 182.933 169.07 182.764 169.76 182.764C170.157 182.764 170.55 182.83 170.938 182.963C171.326 183.096 171.679 183.311 171.997 183.609C172.315 183.904 172.569 184.295 172.758 184.783C172.947 185.27 173.041 185.87 173.041 186.582V187.08H167.155V186.065H171.848C171.848 185.634 171.762 185.25 171.589 184.912C171.42 184.574 171.178 184.307 170.863 184.112C170.552 183.916 170.184 183.818 169.76 183.818C169.292 183.818 168.888 183.934 168.547 184.166C168.209 184.395 167.948 184.693 167.766 185.061C167.584 185.429 167.493 185.823 167.493 186.244V186.92C167.493 187.497 167.592 187.986 167.791 188.387C167.993 188.785 168.273 189.088 168.631 189.297C168.989 189.502 169.405 189.605 169.879 189.605C170.187 189.605 170.466 189.562 170.714 189.476C170.966 189.386 171.183 189.254 171.366 189.078C171.548 188.899 171.689 188.677 171.788 188.412L172.922 188.73C172.802 189.115 172.602 189.453 172.32 189.744C172.038 190.033 171.69 190.258 171.276 190.42C170.862 190.58 170.396 190.659 169.879 190.659ZM177.709 190.659C177.073 190.659 176.511 190.498 176.024 190.177C175.537 189.852 175.156 189.395 174.881 188.805C174.605 188.211 174.468 187.51 174.468 186.702C174.468 185.9 174.605 185.204 174.881 184.614C175.156 184.024 175.538 183.568 176.029 183.246C176.519 182.925 177.086 182.764 177.729 182.764C178.226 182.764 178.619 182.847 178.907 183.013C179.199 183.175 179.421 183.361 179.574 183.57C179.729 183.775 179.85 183.944 179.937 184.077H180.036V180.318H181.209V190.5H180.076V189.327H179.937C179.85 189.466 179.728 189.642 179.569 189.854C179.41 190.062 179.183 190.25 178.888 190.415C178.593 190.578 178.2 190.659 177.709 190.659ZM177.868 189.605C178.339 189.605 178.737 189.482 179.062 189.237C179.386 188.989 179.633 188.646 179.802 188.208C179.971 187.767 180.056 187.259 180.056 186.682C180.056 186.112 179.973 185.613 179.807 185.185C179.642 184.754 179.396 184.42 179.072 184.181C178.747 183.939 178.346 183.818 177.868 183.818C177.371 183.818 176.957 183.946 176.626 184.201C176.297 184.453 176.05 184.796 175.885 185.23C175.722 185.661 175.641 186.145 175.641 186.682C175.641 187.225 175.724 187.719 175.89 188.163C176.059 188.604 176.307 188.955 176.635 189.217C176.967 189.476 177.378 189.605 177.868 189.605ZM183.521 190.5V182.864H184.694V190.5H183.521ZM184.118 181.591C183.889 181.591 183.692 181.513 183.526 181.357C183.364 181.201 183.282 181.014 183.282 180.795C183.282 180.577 183.364 180.389 183.526 180.234C183.692 180.078 183.889 180 184.118 180C184.346 180 184.542 180.078 184.704 180.234C184.87 180.389 184.953 180.577 184.953 180.795C184.953 181.014 184.87 181.201 184.704 181.357C184.542 181.513 184.346 181.591 184.118 181.591ZM189.946 190.659C189.23 190.659 188.613 190.49 188.096 190.152C187.579 189.814 187.181 189.348 186.903 188.755C186.625 188.162 186.485 187.484 186.485 186.722C186.485 185.946 186.628 185.262 186.913 184.668C187.201 184.072 187.602 183.606 188.116 183.271C188.633 182.933 189.236 182.764 189.926 182.764C190.463 182.764 190.947 182.864 191.377 183.062C191.808 183.261 192.161 183.54 192.436 183.898C192.712 184.256 192.882 184.673 192.949 185.151H191.775C191.686 184.803 191.487 184.494 191.179 184.226C190.874 183.954 190.463 183.818 189.946 183.818C189.488 183.818 189.087 183.937 188.743 184.176C188.401 184.411 188.134 184.745 187.942 185.175C187.753 185.603 187.659 186.105 187.659 186.682C187.659 187.272 187.752 187.786 187.937 188.223C188.126 188.661 188.391 189 188.733 189.242C189.077 189.484 189.482 189.605 189.946 189.605C190.251 189.605 190.527 189.552 190.776 189.446C191.025 189.34 191.235 189.188 191.407 188.989C191.58 188.79 191.702 188.551 191.775 188.273H192.949C192.882 188.723 192.718 189.129 192.456 189.491C192.198 189.849 191.855 190.134 191.427 190.346C191.003 190.555 190.509 190.659 189.946 190.659ZM196.911 190.679C196.427 190.679 195.988 190.588 195.593 190.406C195.199 190.22 194.886 189.953 194.654 189.605C194.422 189.254 194.306 188.83 194.306 188.332C194.306 187.895 194.392 187.54 194.564 187.268C194.737 186.993 194.967 186.778 195.255 186.622C195.544 186.466 195.862 186.35 196.21 186.274C196.561 186.195 196.914 186.132 197.269 186.085C197.733 186.026 198.109 185.981 198.397 185.951C198.689 185.918 198.901 185.863 199.034 185.787C199.17 185.711 199.238 185.578 199.238 185.389V185.349C199.238 184.859 199.103 184.478 198.835 184.206C198.57 183.934 198.167 183.798 197.627 183.798C197.067 183.798 196.627 183.921 196.309 184.166C195.991 184.411 195.767 184.673 195.638 184.952L194.525 184.554C194.723 184.09 194.989 183.729 195.32 183.47C195.655 183.208 196.019 183.026 196.414 182.923C196.811 182.817 197.203 182.764 197.587 182.764C197.832 182.764 198.114 182.794 198.432 182.854C198.754 182.91 199.064 183.028 199.362 183.207C199.663 183.386 199.914 183.656 200.113 184.017C200.311 184.378 200.411 184.862 200.411 185.469V190.5H199.238V189.466H199.178C199.098 189.632 198.966 189.809 198.78 189.998C198.595 190.187 198.348 190.348 198.039 190.48C197.731 190.613 197.355 190.679 196.911 190.679ZM197.09 189.625C197.554 189.625 197.945 189.534 198.263 189.352C198.585 189.169 198.827 188.934 198.989 188.646C199.155 188.357 199.238 188.054 199.238 187.736V186.662C199.188 186.722 199.078 186.776 198.909 186.826C198.744 186.872 198.551 186.914 198.333 186.95C198.117 186.983 197.907 187.013 197.701 187.04C197.499 187.063 197.335 187.083 197.209 187.099C196.904 187.139 196.619 187.204 196.354 187.293C196.092 187.379 195.88 187.51 195.718 187.686C195.559 187.858 195.479 188.094 195.479 188.392C195.479 188.8 195.63 189.108 195.931 189.317C196.236 189.522 196.623 189.625 197.09 189.625ZM203.726 180.318V190.5H202.552V180.318H203.726Z" fill="#21201D"/>
<path d="M107.199 208.71V207.841L111.034 201.773H111.665V203.119H111.239L108.341 207.705V207.773H113.506V208.71H107.199ZM111.307 210.5V208.446V208.041V201.773H112.312V210.5H111.307ZM117.83 210.619C117.33 210.619 116.88 210.52 116.479 210.321C116.078 210.122 115.757 209.849 115.516 209.503C115.275 209.156 115.142 208.761 115.12 208.318H116.142C116.182 208.713 116.361 209.04 116.679 209.298C117 209.554 117.384 209.682 117.83 209.682C118.188 209.682 118.506 209.598 118.784 209.43C119.066 209.263 119.286 209.033 119.445 208.74C119.607 208.445 119.688 208.111 119.688 207.739C119.688 207.358 119.604 207.018 119.436 206.72C119.272 206.419 119.044 206.182 118.755 206.009C118.465 205.835 118.134 205.747 117.762 205.744C117.495 205.741 117.221 205.783 116.939 205.868C116.658 205.95 116.426 206.057 116.245 206.188L115.256 206.068L115.784 201.773H120.319V202.71H116.671L116.364 205.284H116.415C116.594 205.142 116.819 205.024 117.088 204.93C117.358 204.837 117.64 204.79 117.932 204.79C118.466 204.79 118.942 204.918 119.36 205.173C119.78 205.426 120.11 205.773 120.348 206.213C120.59 206.653 120.711 207.156 120.711 207.722C120.711 208.278 120.586 208.776 120.336 209.213C120.088 209.648 119.748 209.991 119.313 210.244C118.878 210.494 118.384 210.619 117.83 210.619ZM125.932 201.773H127.193L130.159 209.017H130.261L133.227 201.773H134.489V210.5H133.5V203.869H133.415L130.688 210.5H129.733L127.006 203.869H126.92V210.5H125.932V201.773ZM136.471 210.5V203.955H137.477V210.5H136.471ZM136.983 202.864C136.787 202.864 136.618 202.797 136.475 202.663C136.336 202.53 136.267 202.369 136.267 202.182C136.267 201.994 136.336 201.834 136.475 201.7C136.618 201.567 136.787 201.5 136.983 201.5C137.179 201.5 137.346 201.567 137.485 201.7C137.627 201.834 137.699 201.994 137.699 202.182C137.699 202.369 137.627 202.53 137.485 202.663C137.346 202.797 137.179 202.864 136.983 202.864ZM143.955 205.42L143.052 205.676C142.995 205.526 142.911 205.379 142.8 205.237C142.692 205.092 142.545 204.973 142.357 204.879C142.17 204.786 141.93 204.739 141.637 204.739C141.237 204.739 140.903 204.831 140.636 205.016C140.371 205.197 140.239 205.429 140.239 205.71C140.239 205.96 140.33 206.158 140.512 206.303C140.694 206.447 140.978 206.568 141.364 206.665L142.336 206.903C142.921 207.045 143.357 207.263 143.644 207.555C143.931 207.845 144.075 208.219 144.075 208.676C144.075 209.051 143.967 209.386 143.751 209.682C143.538 209.977 143.239 210.21 142.856 210.381C142.472 210.551 142.026 210.636 141.518 210.636C140.85 210.636 140.298 210.491 139.86 210.202C139.423 209.912 139.146 209.489 139.029 208.932L139.984 208.693C140.075 209.045 140.246 209.31 140.499 209.486C140.755 209.662 141.089 209.75 141.501 209.75C141.969 209.75 142.342 209.651 142.617 209.452C142.896 209.25 143.035 209.009 143.035 208.727C143.035 208.5 142.955 208.31 142.796 208.156C142.637 208 142.393 207.884 142.063 207.807L140.972 207.551C140.373 207.409 139.933 207.189 139.651 206.891C139.373 206.589 139.234 206.213 139.234 205.761C139.234 205.392 139.337 205.065 139.545 204.781C139.755 204.497 140.04 204.274 140.401 204.112C140.765 203.95 141.177 203.869 141.637 203.869C142.285 203.869 142.793 204.011 143.163 204.295C143.535 204.58 143.799 204.955 143.955 205.42ZM150.225 205.42L149.321 205.676C149.265 205.526 149.181 205.379 149.07 205.237C148.962 205.092 148.814 204.973 148.627 204.879C148.439 204.786 148.199 204.739 147.907 204.739C147.506 204.739 147.172 204.831 146.905 205.016C146.641 205.197 146.509 205.429 146.509 205.71C146.509 205.96 146.6 206.158 146.782 206.303C146.963 206.447 147.248 206.568 147.634 206.665L148.605 206.903C149.191 207.045 149.627 207.263 149.914 207.555C150.201 207.845 150.344 208.219 150.344 208.676C150.344 209.051 150.236 209.386 150.02 209.682C149.807 209.977 149.509 210.21 149.125 210.381C148.742 210.551 148.296 210.636 147.787 210.636C147.12 210.636 146.567 210.491 146.13 210.202C145.692 209.912 145.415 209.489 145.299 208.932L146.253 208.693C146.344 209.045 146.516 209.31 146.769 209.486C147.025 209.662 147.358 209.75 147.77 209.75C148.239 209.75 148.611 209.651 148.887 209.452C149.165 209.25 149.304 209.009 149.304 208.727C149.304 208.5 149.225 208.31 149.066 208.156C148.907 208 148.662 207.884 148.333 207.807L147.242 207.551C146.642 207.409 146.202 207.189 145.921 206.891C145.642 206.589 145.503 206.213 145.503 205.761C145.503 205.392 145.607 205.065 145.814 204.781C146.025 204.497 146.31 204.274 146.671 204.112C147.034 203.95 147.446 203.869 147.907 203.869C148.554 203.869 149.063 204.011 149.432 204.295C149.804 204.58 150.069 204.955 150.225 205.42ZM151.858 210.5V203.955H152.864V210.5H151.858ZM152.369 202.864C152.173 202.864 152.004 202.797 151.862 202.663C151.723 202.53 151.653 202.369 151.653 202.182C151.653 201.994 151.723 201.834 151.862 201.7C152.004 201.567 152.173 201.5 152.369 201.5C152.565 201.5 152.733 201.567 152.872 201.7C153.014 201.834 153.085 201.994 153.085 202.182C153.085 202.369 153.014 202.53 152.872 202.663C152.733 202.797 152.565 202.864 152.369 202.864ZM157.365 210.636C156.774 210.636 156.255 210.496 155.809 210.214C155.366 209.933 155.02 209.54 154.77 209.034C154.522 208.528 154.399 207.937 154.399 207.261C154.399 206.58 154.522 205.984 154.77 205.476C155.02 204.967 155.366 204.572 155.809 204.291C156.255 204.01 156.774 203.869 157.365 203.869C157.956 203.869 158.473 204.01 158.916 204.291C159.362 204.572 159.708 204.967 159.956 205.476C160.206 205.984 160.331 206.58 160.331 207.261C160.331 207.937 160.206 208.528 159.956 209.034C159.708 209.54 159.362 209.933 158.916 210.214C158.473 210.496 157.956 210.636 157.365 210.636ZM157.365 209.733C157.814 209.733 158.183 209.618 158.473 209.388C158.762 209.158 158.977 208.855 159.116 208.48C159.255 208.105 159.325 207.699 159.325 207.261C159.325 206.824 159.255 206.416 159.116 206.038C158.977 205.661 158.762 205.355 158.473 205.122C158.183 204.889 157.814 204.773 157.365 204.773C156.916 204.773 156.547 204.889 156.257 205.122C155.967 205.355 155.752 205.661 155.613 206.038C155.474 206.416 155.404 206.824 155.404 207.261C155.404 207.699 155.474 208.105 155.613 208.48C155.752 208.855 155.967 209.158 156.257 209.388C156.547 209.618 156.916 209.733 157.365 209.733ZM162.871 206.562V210.5H161.866V203.955H162.837V204.977H162.923C163.076 204.645 163.309 204.378 163.621 204.176C163.934 203.972 164.337 203.869 164.832 203.869C165.275 203.869 165.663 203.96 165.995 204.142C166.327 204.321 166.586 204.594 166.771 204.96C166.955 205.324 167.048 205.784 167.048 206.341V210.5H166.042V206.409C166.042 205.895 165.908 205.494 165.641 205.207C165.374 204.918 165.008 204.773 164.542 204.773C164.221 204.773 163.934 204.842 163.681 204.982C163.431 205.121 163.234 205.324 163.089 205.591C162.944 205.858 162.871 206.182 162.871 206.562ZM177.169 203.955C177.118 203.523 176.911 203.188 176.547 202.949C176.184 202.71 175.738 202.591 175.209 202.591C174.823 202.591 174.485 202.653 174.195 202.778C173.908 202.903 173.684 203.075 173.522 203.294C173.363 203.513 173.283 203.761 173.283 204.04C173.283 204.273 173.338 204.473 173.449 204.641C173.563 204.805 173.708 204.943 173.884 205.054C174.06 205.162 174.245 205.251 174.438 205.322C174.631 205.391 174.809 205.446 174.971 205.489L175.857 205.727C176.084 205.787 176.337 205.869 176.615 205.974C176.897 206.08 177.165 206.223 177.421 206.405C177.679 206.584 177.892 206.814 178.06 207.095C178.228 207.376 178.311 207.722 178.311 208.131C178.311 208.602 178.188 209.028 177.941 209.409C177.696 209.79 177.338 210.092 176.867 210.317C176.398 210.541 175.828 210.653 175.158 210.653C174.533 210.653 173.992 210.553 173.534 210.351C173.08 210.149 172.722 209.868 172.461 209.507C172.202 209.146 172.056 208.727 172.022 208.25H173.113C173.141 208.58 173.252 208.852 173.445 209.068C173.641 209.281 173.888 209.44 174.186 209.545C174.488 209.648 174.811 209.699 175.158 209.699C175.561 209.699 175.924 209.634 176.245 209.503C176.566 209.369 176.82 209.185 177.007 208.949C177.195 208.71 177.289 208.432 177.289 208.114C177.289 207.824 177.208 207.588 177.046 207.406C176.884 207.224 176.671 207.077 176.407 206.963C176.142 206.849 175.857 206.75 175.55 206.665L174.476 206.358C173.794 206.162 173.255 205.882 172.857 205.518C172.459 205.155 172.26 204.679 172.26 204.091C172.26 203.602 172.392 203.176 172.657 202.812C172.924 202.446 173.282 202.162 173.73 201.96C174.182 201.756 174.686 201.653 175.243 201.653C175.806 201.653 176.306 201.754 176.743 201.956C177.181 202.155 177.527 202.428 177.783 202.774C178.042 203.121 178.178 203.514 178.192 203.955H177.169ZM182.759 203.955V204.807H179.367V203.955H182.759ZM180.356 202.386H181.362V208.625C181.362 208.909 181.403 209.122 181.485 209.264C181.57 209.403 181.678 209.497 181.809 209.545C181.942 209.591 182.083 209.614 182.231 209.614C182.342 209.614 182.433 209.608 182.504 209.597C182.575 209.582 182.631 209.571 182.674 209.562L182.879 210.466C182.81 210.491 182.715 210.517 182.593 210.543C182.471 210.571 182.316 210.585 182.129 210.585C181.844 210.585 181.566 210.524 181.293 210.402C181.023 210.28 180.799 210.094 180.62 209.844C180.444 209.594 180.356 209.278 180.356 208.898V202.386ZM184.272 210.5V203.955H185.244V204.943H185.312C185.431 204.619 185.647 204.357 185.96 204.155C186.272 203.953 186.624 203.852 187.016 203.852C187.09 203.852 187.183 203.854 187.293 203.857C187.404 203.859 187.488 203.864 187.545 203.869V204.892C187.511 204.884 187.433 204.871 187.31 204.854C187.191 204.834 187.065 204.824 186.931 204.824C186.613 204.824 186.329 204.891 186.079 205.024C185.832 205.155 185.636 205.337 185.491 205.57C185.349 205.8 185.278 206.062 185.278 206.358V210.5H184.272ZM191.282 210.636C190.651 210.636 190.107 210.497 189.65 210.219C189.195 209.938 188.844 209.545 188.597 209.043C188.353 208.537 188.231 207.949 188.231 207.278C188.231 206.608 188.353 206.017 188.597 205.506C188.844 204.991 189.188 204.591 189.629 204.304C190.072 204.014 190.589 203.869 191.18 203.869C191.521 203.869 191.857 203.926 192.19 204.04C192.522 204.153 192.825 204.338 193.097 204.594C193.37 204.847 193.587 205.182 193.749 205.599C193.911 206.017 193.992 206.531 193.992 207.142V207.568H188.947V206.699H192.969C192.969 206.33 192.896 206 192.748 205.71C192.603 205.42 192.396 205.192 192.126 205.024C191.859 204.857 191.543 204.773 191.18 204.773C190.779 204.773 190.433 204.872 190.14 205.071C189.85 205.267 189.627 205.523 189.471 205.838C189.315 206.153 189.237 206.491 189.237 206.852V207.432C189.237 207.926 189.322 208.345 189.492 208.689C189.665 209.03 189.906 209.29 190.212 209.469C190.519 209.645 190.876 209.733 191.282 209.733C191.546 209.733 191.785 209.696 191.998 209.622C192.214 209.545 192.4 209.432 192.556 209.281C192.712 209.128 192.833 208.937 192.918 208.71L193.89 208.983C193.788 209.312 193.616 209.602 193.374 209.852C193.133 210.099 192.835 210.293 192.479 210.432C192.124 210.568 191.725 210.636 191.282 210.636ZM198.266 210.636C197.636 210.636 197.092 210.497 196.634 210.219C196.18 209.938 195.829 209.545 195.582 209.043C195.337 208.537 195.215 207.949 195.215 207.278C195.215 206.608 195.337 206.017 195.582 205.506C195.829 204.991 196.173 204.591 196.613 204.304C197.056 204.014 197.573 203.869 198.164 203.869C198.505 203.869 198.842 203.926 199.174 204.04C199.506 204.153 199.809 204.338 200.082 204.594C200.354 204.847 200.572 205.182 200.734 205.599C200.896 206.017 200.977 206.531 200.977 207.142V207.568H195.931V206.699H199.954C199.954 206.33 199.88 206 199.732 205.71C199.587 205.42 199.38 205.192 199.11 205.024C198.843 204.857 198.528 204.773 198.164 204.773C197.763 204.773 197.417 204.872 197.124 205.071C196.835 205.267 196.612 205.523 196.455 205.838C196.299 206.153 196.221 206.491 196.221 206.852V207.432C196.221 207.926 196.306 208.345 196.477 208.689C196.65 209.03 196.89 209.29 197.197 209.469C197.504 209.645 197.86 209.733 198.266 209.733C198.531 209.733 198.769 209.696 198.982 209.622C199.198 209.545 199.384 209.432 199.54 209.281C199.697 209.128 199.817 208.937 199.903 208.71L200.874 208.983C200.772 209.312 200.6 209.602 200.359 209.852C200.117 210.099 199.819 210.293 199.464 210.432C199.109 210.568 198.71 210.636 198.266 210.636ZM205.353 203.955V204.807H201.961V203.955H205.353ZM202.95 202.386H203.955V208.625C203.955 208.909 203.996 209.122 204.079 209.264C204.164 209.403 204.272 209.497 204.403 209.545C204.536 209.591 204.677 209.614 204.825 209.614C204.935 209.614 205.026 209.608 205.097 209.597C205.168 209.582 205.225 209.571 205.268 209.562L205.472 210.466C205.404 210.491 205.309 210.517 205.187 210.543C205.065 210.571 204.91 210.585 204.722 210.585C204.438 210.585 204.16 210.524 203.887 210.402C203.617 210.28 203.393 210.094 203.214 209.844C203.038 209.594 202.95 209.278 202.95 208.898V202.386ZM208.366 209.307L208.298 209.767C208.249 210.091 208.175 210.438 208.076 210.807C207.979 211.176 207.879 211.524 207.773 211.851C207.668 212.178 207.582 212.438 207.513 212.631H206.746C206.783 212.449 206.832 212.209 206.891 211.911C206.951 211.612 207.011 211.278 207.07 210.909C207.133 210.543 207.184 210.168 207.224 209.784L207.275 209.307H208.366ZM216.434 210.5H213.74V201.773H216.553C217.4 201.773 218.124 201.947 218.726 202.297C219.328 202.643 219.79 203.142 220.111 203.793C220.432 204.44 220.593 205.216 220.593 206.119C220.593 207.028 220.431 207.811 220.107 208.467C219.783 209.121 219.311 209.624 218.692 209.976C218.073 210.325 217.32 210.5 216.434 210.5ZM214.797 209.562H216.365C217.087 209.562 217.685 209.423 218.159 209.145C218.634 208.866 218.988 208.47 219.221 207.956C219.453 207.442 219.57 206.83 219.57 206.119C219.57 205.415 219.455 204.808 219.225 204.3C218.995 203.788 218.651 203.396 218.194 203.124C217.736 202.848 217.167 202.71 216.485 202.71H214.797V209.562ZM224.973 210.636C224.343 210.636 223.799 210.497 223.341 210.219C222.887 209.938 222.536 209.545 222.289 209.043C222.044 208.537 221.922 207.949 221.922 207.278C221.922 206.608 222.044 206.017 222.289 205.506C222.536 204.991 222.88 204.591 223.32 204.304C223.763 204.014 224.28 203.869 224.871 203.869C225.212 203.869 225.549 203.926 225.881 204.04C226.213 204.153 226.516 204.338 226.789 204.594C227.061 204.847 227.279 205.182 227.441 205.599C227.603 206.017 227.684 206.531 227.684 207.142V207.568H222.638V206.699H226.661C226.661 206.33 226.587 206 226.439 205.71C226.294 205.42 226.087 205.192 225.817 205.024C225.55 204.857 225.235 204.773 224.871 204.773C224.471 204.773 224.124 204.872 223.831 205.071C223.542 205.267 223.319 205.523 223.162 205.838C223.006 206.153 222.928 206.491 222.928 206.852V207.432C222.928 207.926 223.013 208.345 223.184 208.689C223.357 209.03 223.597 209.29 223.904 209.469C224.211 209.645 224.567 209.733 224.973 209.733C225.238 209.733 225.476 209.696 225.689 209.622C225.905 209.545 226.091 209.432 226.248 209.281C226.404 209.128 226.525 208.937 226.61 208.71L227.581 208.983C227.479 209.312 227.307 209.602 227.066 209.852C226.824 210.099 226.526 210.293 226.171 210.432C225.816 210.568 225.417 210.636 224.973 210.636ZM230.219 206.562V210.5H229.213V203.955H230.185V204.977H230.27C230.424 204.645 230.657 204.378 230.969 204.176C231.282 203.972 231.685 203.869 232.179 203.869C232.623 203.869 233.01 203.96 233.343 204.142C233.675 204.321 233.934 204.594 234.118 204.96C234.303 205.324 234.395 205.784 234.395 206.341V210.5H233.39V206.409C233.39 205.895 233.256 205.494 232.989 205.207C232.722 204.918 232.355 204.773 231.89 204.773C231.569 204.773 231.282 204.842 231.029 204.982C230.779 205.121 230.581 205.324 230.436 205.591C230.292 205.858 230.219 206.182 230.219 206.562ZM241.351 203.955L238.93 210.5H237.908L235.487 203.955H236.578L238.385 209.17H238.453L240.26 203.955H241.351ZM245.188 210.636C244.558 210.636 244.013 210.497 243.556 210.219C243.102 209.938 242.751 209.545 242.504 209.043C242.259 208.537 242.137 207.949 242.137 207.278C242.137 206.608 242.259 206.017 242.504 205.506C242.751 204.991 243.094 204.591 243.535 204.304C243.978 204.014 244.495 203.869 245.086 203.869C245.427 203.869 245.763 203.926 246.096 204.04C246.428 204.153 246.731 204.338 247.004 204.594C247.276 204.847 247.494 205.182 247.656 205.599C247.817 206.017 247.898 206.531 247.898 207.142V207.568H242.853V206.699H246.876C246.876 206.33 246.802 206 246.654 205.71C246.509 205.42 246.302 205.192 246.032 205.024C245.765 204.857 245.45 204.773 245.086 204.773C244.685 204.773 244.339 204.872 244.046 205.071C243.756 205.267 243.533 205.523 243.377 205.838C243.221 206.153 243.143 206.491 243.143 206.852V207.432C243.143 207.926 243.228 208.345 243.398 208.689C243.572 209.03 243.812 209.29 244.119 209.469C244.425 209.645 244.782 209.733 245.188 209.733C245.452 209.733 245.691 209.696 245.904 209.622C246.12 209.545 246.306 209.432 246.462 209.281C246.619 209.128 246.739 208.937 246.825 208.71L247.796 208.983C247.694 209.312 247.522 209.602 247.281 209.852C247.039 210.099 246.741 210.293 246.386 210.432C246.031 210.568 245.631 210.636 245.188 210.636ZM249.428 210.5V203.955H250.4V204.943H250.468C250.587 204.619 250.803 204.357 251.116 204.155C251.428 203.953 251.781 203.852 252.173 203.852C252.246 203.852 252.339 203.854 252.45 203.857C252.56 203.859 252.644 203.864 252.701 203.869V204.892C252.667 204.884 252.589 204.871 252.467 204.854C252.347 204.834 252.221 204.824 252.087 204.824C251.769 204.824 251.485 204.891 251.235 205.024C250.988 205.155 250.792 205.337 250.647 205.57C250.505 205.8 250.434 206.062 250.434 206.358V210.5H249.428ZM254.643 209.307L254.575 209.767C254.527 210.091 254.453 210.438 254.353 210.807C254.257 211.176 254.156 211.524 254.051 211.851C253.946 212.178 253.859 212.438 253.791 212.631H253.024C253.061 212.449 253.109 212.209 253.169 211.911C253.228 211.612 253.288 211.278 253.348 210.909C253.41 210.543 253.461 210.168 253.501 209.784L253.552 209.307H254.643ZM267.04 204.5H265.984C265.921 204.196 265.812 203.929 265.656 203.699C265.502 203.469 265.315 203.276 265.093 203.119C264.874 202.96 264.631 202.841 264.364 202.761C264.097 202.682 263.819 202.642 263.529 202.642C263.001 202.642 262.522 202.776 262.093 203.043C261.667 203.31 261.327 203.703 261.075 204.223C260.825 204.743 260.7 205.381 260.7 206.136C260.7 206.892 260.825 207.53 261.075 208.05C261.327 208.57 261.667 208.963 262.093 209.23C262.522 209.497 263.001 209.631 263.529 209.631C263.819 209.631 264.097 209.591 264.364 209.511C264.631 209.432 264.874 209.314 265.093 209.158C265.315 208.999 265.502 208.804 265.656 208.574C265.812 208.341 265.921 208.074 265.984 207.773H267.04C266.961 208.219 266.816 208.618 266.606 208.97C266.396 209.322 266.134 209.622 265.822 209.869C265.509 210.114 265.158 210.3 264.769 210.428C264.383 210.555 263.969 210.619 263.529 210.619C262.785 210.619 262.123 210.438 261.543 210.074C260.964 209.71 260.508 209.193 260.175 208.523C259.843 207.852 259.677 207.057 259.677 206.136C259.677 205.216 259.843 204.42 260.175 203.75C260.508 203.08 260.964 202.562 261.543 202.199C262.123 201.835 262.785 201.653 263.529 201.653C263.969 201.653 264.383 201.717 264.769 201.845C265.158 201.973 265.509 202.161 265.822 202.408C266.134 202.652 266.396 202.95 266.606 203.303C266.816 203.652 266.961 204.051 267.04 204.5ZM276.112 206.136C276.112 207.057 275.946 207.852 275.613 208.523C275.281 209.193 274.825 209.71 274.245 210.074C273.666 210.438 273.004 210.619 272.26 210.619C271.515 210.619 270.853 210.438 270.274 210.074C269.694 209.71 269.238 209.193 268.906 208.523C268.574 207.852 268.407 207.057 268.407 206.136C268.407 205.216 268.574 204.42 268.906 203.75C269.238 203.08 269.694 202.562 270.274 202.199C270.853 201.835 271.515 201.653 272.26 201.653C273.004 201.653 273.666 201.835 274.245 202.199C274.825 202.562 275.281 203.08 275.613 203.75C275.946 204.42 276.112 205.216 276.112 206.136ZM275.089 206.136C275.089 205.381 274.963 204.743 274.71 204.223C274.46 203.703 274.12 203.31 273.691 203.043C273.265 202.776 272.788 202.642 272.26 202.642C271.731 202.642 271.252 202.776 270.824 203.043C270.397 203.31 270.058 203.703 269.805 204.223C269.555 204.743 269.43 205.381 269.43 206.136C269.43 206.892 269.555 207.53 269.805 208.05C270.058 208.57 270.397 208.963 270.824 209.23C271.252 209.497 271.731 209.631 272.26 209.631C272.788 209.631 273.265 209.497 273.691 209.23C274.12 208.963 274.46 208.57 274.71 208.05C274.963 207.53 275.089 206.892 275.089 206.136Z" fill="#8E8C88"/>
</g>
<defs>
<filter id="filter0_d_1202_12920" x="0" y="0" width="533" height="237" filterUnits="userSpaceOnUse" color-interpolation-filters="sRGB">
<feFlood flood-opacity="0" result="BackgroundImageFix"/>
<feColorMatrix in="SourceAlpha" type="matrix" values="0 0 0 0 0 0 0 0 0 0 0 0 0 0 0 0 0 0 127 0" result="hardAlpha"/>
<feOffset dy="5"/>
<feGaussianBlur stdDeviation="25"/>
<feComposite in2="hardAlpha" operator="out"/>
<feColorMatrix type="matrix" values="0 0 0 0 0 0 0 0 0 0 0 0 0 0 0 0 0 0 0.15 0"/>
<feBlend mode="normal" in2="BackgroundImageFix" result="effect1_dropShadow_1202_12920"/>
<feBlend mode="normal" in="SourceGraphic" in2="effect1_dropShadow_1202_12920" result="shape"/>
</filter>
<filter id="filter1_ddd_1202_12920" x="48.5" y="96.5" width="436" height="156" filterUnits="userSpaceOnUse" color-interpolation-filters="sRGB">
<feFlood flood-opacity="0" result="BackgroundImageFix"/>
<feColorMatrix in="SourceAlpha" type="matrix" values="0 0 0 0 0 0 0 0 0 0 0 0 0 0 0 0 0 0 127 0" result="hardAlpha"/>
<feOffset dy="1"/>
<feGaussianBlur stdDeviation="0.5"/>
<feComposite in2="hardAlpha" operator="out"/>
<feColorMatrix type="matrix" values="0 0 0 0 0 0 0 0 0 0 0 0 0 0 0 0 0 0 0.04 0"/>
<feBlend mode="normal" in2="BackgroundImageFix" result="effect1_dropShadow_1202_12920"/>
<feColorMatrix in="SourceAlpha" type="matrix" values="0 0 0 0 0 0 0 0 0 0 0 0 0 0 0 0 0 0 127 0" result="hardAlpha"/>
<feOffset dy="3"/>
<feGaussianBlur stdDeviation="4.5"/>
<feComposite in2="hardAlpha" operator="out"/>
<feColorMatrix type="matrix" values="0 0 0 0 0 0 0 0 0 0 0 0 0 0 0 0 0 0 0.04 0"/>
<feBlend mode="normal" in2="effect1_dropShadow_1202_12920" result="effect2_dropShadow_1202_12920"/>
<feColorMatrix in="SourceAlpha" type="matrix" values="0 0 0 0 0 0 0 0 0 0 0 0 0 0 0 0 0 0 127 0" result="hardAlpha"/>
<feOffset dy="6"/>
<feGaussianBlur stdDeviation="9"/>
<feComposite in2="hardAlpha" operator="out"/>
<feColorMatrix type="matrix" values="0 0 0 0 0 0 0 0 0 0 0 0 0 0 0 0 0 0 0.04 0"/>
<feBlend mode="normal" in2="effect2_dropShadow_1202_12920" result="effect3_dropShadow_1202_12920"/>
<feBlend mode="normal" in="SourceGraphic" in2="effect3_dropShadow_1202_12920" result="shape"/>
</filter>
</defs>
</svg>
