<svg preserveAspectRatio="none" width="100%" height="100%" overflow="visible" style="display: block;" viewBox="0 0 9.49907 13.0006" fill="none" xmlns="http://www.w3.org/2000/svg">
<path id="Vector" fill-rule="evenodd" clip-rule="evenodd" d="M4.74953 13.0006C4.55062 13.0006 4.35986 12.9216 4.2192 12.7809C4.07855 12.6403 3.99953 12.4495 3.99953 12.2506V2.56059L1.27953 5.28059C1.20993 5.35019 1.1273 5.4054 1.03637 5.44307C0.945429 5.48073 0.847963 5.50012 0.749533 5.50012C0.651103 5.50012 0.553637 5.48073 0.462699 5.44307C0.371762 5.4054 0.289134 5.35019 0.219533 5.28059C0.149933 5.21099 0.0947223 5.12836 0.0570548 5.03742C0.0193872 4.94648 -7.33361e-10 4.84902 0 4.75059C7.33362e-10 4.65216 0.0193872 4.55469 0.0570548 4.46375C0.0947223 4.37282 0.149933 4.29019 0.219533 4.22059L4.21953 0.220589C4.28896 0.150685 4.37154 0.0952067 4.4625 0.0573485C4.55346 0.0194903 4.65101 0 4.74953 0C4.84806 0 4.94561 0.0194903 5.03657 0.0573485C5.12753 0.0952067 5.2101 0.150685 5.27953 0.220589L9.27953 4.22059C9.34913 4.29019 9.40434 4.37282 9.44201 4.46375C9.47968 4.55469 9.49907 4.65216 9.49907 4.75059C9.49907 4.84902 9.47968 4.94648 9.44201 5.03742C9.40434 5.12836 9.34913 5.21099 9.27953 5.28059C9.20993 5.35019 9.1273 5.4054 9.03637 5.44307C8.94543 5.48073 8.84796 5.50012 8.74953 5.50012C8.6511 5.50012 8.55364 5.48073 8.4627 5.44307C8.37176 5.4054 8.28913 5.35019 8.21953 5.28059L5.49953 2.56059V12.2506C5.49953 12.4495 5.42052 12.6403 5.27986 12.7809C5.13921 12.9216 4.94845 13.0006 4.74953 13.0006Z" fill="var(--fill-0, white)"/>
</svg>
