<svg preserveAspectRatio="none" width="100%" height="100%" overflow="visible" style="display: block;" viewBox="0 0 28 28" fill="none" xmlns="http://www.w3.org/2000/svg">
<g id="Button Icon">
<path d="M0 6C0 2.68629 2.68629 0 6 0H22C25.3137 0 28 2.68629 28 6V22C28 25.3137 25.3137 28 22 28H6C2.68629 28 0 25.3137 0 22V6Z" fill="var(--fill-0, white)"/>
<path d="M6 0.25H22C25.1756 0.25 27.75 2.82436 27.75 6V22C27.75 25.1756 25.1756 27.75 22 27.75H6C2.82436 27.75 0.25 25.1756 0.25 22V6C0.25 2.82436 2.82436 0.25 6 0.25Z" stroke="var(--stroke-0, #4C4C3B)" stroke-opacity="0.3" stroke-width="0.5"/>
<path id="Vector" d="M9.92285 8.03906C10.0776 8.04197 10.2293 8.08683 10.3613 8.16895L18.5479 13.2539C18.674 13.3313 18.7782 13.4407 18.8506 13.5713C18.923 13.702 18.9613 13.8499 18.9609 14L18.9541 14.1123C18.9402 14.2231 18.9049 14.3308 18.8506 14.4287C18.7963 14.5266 18.7246 14.6131 18.6387 14.6826L18.5479 14.7461L10.3613 19.8311C10.2293 19.9132 10.0776 19.958 9.92285 19.9609C9.76822 19.9638 9.61533 19.9247 9.48047 19.8477C9.34687 19.7718 9.23583 19.6605 9.1582 19.5264C9.08064 19.3923 9.03929 19.2396 9.03906 19.084V8.91602L9.04688 8.7998C9.06216 8.68498 9.10006 8.57417 9.1582 8.47363C9.23583 8.33949 9.34687 8.2282 9.48047 8.15234C9.61533 8.07531 9.76822 8.03621 9.92285 8.03906Z" fill="var(--fill-0, #21201D)" stroke="var(--stroke-0, #21201D)" stroke-width="0.078125"/>
</g>
</svg>
