<svg width="16" height="16" viewBox="0 0 16 16" fill="none" xmlns="http://www.w3.org/2000/svg">
<path d="M2.03262 8.62511C1.52328 7.67356 1.3729 6.57064 1.60891 5.51747C1.84492 4.46429 2.45158 3.53102 3.31829 2.88783C4.185 2.24464 5.254 1.93438 6.33038 2.01361C7.40676 2.09285 8.41881 2.55631 9.18199 3.31949C9.94516 4.08267 10.4086 5.09472 10.4879 6.1711C10.5671 7.24748 10.2568 8.31648 9.61365 9.18319C8.97046 10.0499 8.03718 10.6566 6.98401 10.8926C5.93084 11.1286 4.82792 10.9782 3.87637 10.4689L2.14137 10.9789C2.05522 11.0042 1.96384 11.0058 1.87684 10.9836C1.78984 10.9614 1.71042 10.9162 1.64693 10.8527C1.58344 10.7892 1.53822 10.7098 1.51602 10.6228C1.49381 10.5358 1.49545 10.4444 1.52075 10.3582L2.03262 8.62511Z" stroke="#21201D" stroke-width="1.2" stroke-linecap="round" stroke-linejoin="round"/>
<path d="M10.2464 5.00684C11.0024 5.04793 11.7357 5.27909 12.3786 5.6789C13.0215 6.07872 13.5531 6.63426 13.9243 7.29411C14.2954 7.95396 14.4941 8.69679 14.5019 9.45381C14.5097 10.2108 14.3264 10.9576 13.9689 11.625L14.4789 13.36C14.5042 13.4461 14.5058 13.5375 14.4836 13.6245C14.4614 13.7115 14.4162 13.7909 14.3527 13.8544C14.2892 13.9179 14.2098 13.9631 14.1228 13.9853C14.0358 14.0075 13.9444 14.0059 13.8583 13.9806L12.1252 13.4687C11.5526 13.7749 10.9207 13.9536 10.2726 13.9927C9.62458 14.0318 8.97573 13.9303 8.37057 13.6952C7.76541 13.46 7.21825 13.0968 6.7666 12.6304C6.31495 12.164 5.96949 11.6055 5.75391 10.9931" stroke="#21201D" stroke-width="1.2" stroke-linecap="round" stroke-linejoin="round"/>
</svg>
